<svg height="352" viewBox="0 0 592 352" width="592" xmlns="http://www.w3.org/2000/svg"><g fill="none" fill-rule="evenodd" transform="matrix(.9998477 -.01745241 .01745241 .9998477 .416159 11.13508)"><rect fill="#161414" fill-rule="nonzero" height="330" rx="8" transform="matrix(.9998477 .01745241 -.01745241 .9998477 3.012138 -5.084778)" width="580" x="2.835" y="5.036"/><circle cx="23.436" cy="18.696" r="3.5" stroke="#fa615b" transform="matrix(.9998477 .01745241 -.01745241 .9998477 .32986 -.406167)"/><circle cx="35.434" cy="18.905" r="3.5" stroke="#fcbb40" transform="matrix(.9998477 .01745241 -.01745241 .9998477 .335335 -.615529)"/><circle cx="47.432" cy="19.115" r="3.5" stroke="#41c84a" transform="matrix(.9998477 .01745241 -.01745241 .9998477 .340827 -.824891)"/><g fill-rule="nonzero"><path d="m68.5815049 53.5665645.0212-1.2122-5.5143 3.1225-.0164.9393 5.402 3.313.0211-1.2122-4.3243-2.4943.002-.1142zm2.6443-.1887 1.0726.0187c.092-.9063.6919-1.4481 1.6122-1.4321.8885.0156 1.4883.572 1.4743 1.3717-.0116.6664-.2852 1.0616-1.023 1.5058-.866.5118-1.263 1.0699-1.265 1.9143l-.0101.5775 1.1043.0193.0072-.4126c.0117-.6727.2527-1.0177 1.0353-1.4802.8723-.5117 1.3166-1.234 1.3328-2.1606.0235-1.3455-1.0578-2.323-2.5937-2.3498-1.5866-.0277-2.644.8997-2.7469 2.428zm2.4057 6.9366c.4824.0084.8765-.3847.8852-.8861.0088-.5014-.3714-.908-.8537-.9164-.4824-.0084-.8765.3847-.8852.8861-.0088.5013.3714.9079.8537.9164zm8.7304-6.9708c-.9837-.0172-1.708.3765-2.083 1.1318l-.1143-.002.0184-1.0536-1.0662-.0186-.1608 9.2091 1.098.0191.0592-3.3891.1206.0021c.2851.7605 1.0075 1.1984 2.0039 1.2158 1.5931.0278 2.654-1.1027 2.6848-2.8671l.0223-1.282c.031-1.7708-.9899-2.9377-2.5829-2.9655zm-.3282.9847c1.136.0198 1.8454.8448 1.8232 2.1141l-.0173.9901c-.0221 1.2693-.76 2.0754-1.896 2.0556-1.1361-.0198-1.8454-.8448-1.8231-2.1205l.0172-.9901c.0222-1.2693.7599-2.0691 1.896-2.0492zm4.9851 6.0991 1.0789.0188.0707-4.0491c.0205-1.1742.8023-1.9541 1.9384-1.9343 1.0789.0189 1.5763.618 1.5547 1.8556l-.0731 4.1888 1.0789.0188.0779-4.4617c.0287-1.6438-.7679-2.5592-2.2657-2.5854-1.0536-.0183-1.8554.4502-2.2321 1.3006l-.0888-.0015.0684-3.9223-1.0408-.0181zm11.4129-6.8033c-.9837-.0172-1.708.3765-2.083 1.1318l-.1143-.002.0184-1.0536-1.0662-.0186-.1608 9.2091 1.098.0191.0592-3.3891.1206.0021c.2851.7605 1.0075 1.1984 2.004 1.2158 1.5933.0278 2.6543001-1.1027 2.6843001-2.8671l.023-1.282c.031-1.7708-.99-2.9377-2.5832001-2.9655zm-.3282.9847c1.136.0198 1.8454.8448 1.8234 2.1141l-.017.9901c-.023 1.2693-.7604 2.0754-1.8965 2.0556-1.136-.0198-1.8454-.8448-1.8231-2.1205l.0173-.9901c.0221-1.2693.7598-2.0691 1.8959-2.0492z" fill="#8ce99a"/><path d="m65.5228049 92.4072645 1.6436 3.6792 1.263.022-1.7983-3.9104c1.0469-.3245 1.7304-1.2966 1.7514-2.4962.0297-1.7009-1.088-2.7743-2.9031-2.8059l-3.0718-.0537-.1599 9.1583 1.1043.0193.0637-3.6494zm-2.0283-4.5492 1.8659.0325c1.2249.0214 1.9118.681 1.8919 1.817-.0199 1.1424-.7419 1.771-2.0049 1.749l-1.8152-.0317zm9.6482 8.4597c1.8215.0318 3.0037-1.1348 3.0362-2.9944l.0181-1.0408c.0325-1.8596-1.1082-3.0667-2.9297-3.0985s-3.0037 1.1348-3.0362 2.9943l-.0181 1.0409c-.0325 1.8596 1.1082 3.0667 2.9297 3.0985zm.108-6.1817c1.1804.0206 1.902.8712 1.8784 2.2231l-.0147.8441c-.0237 1.3582-.7744 2.1767-1.9549 2.1561s-1.9022-.8649-1.8785-2.223l.0147-.8442c.0236-1.3518.7745-2.1767 1.955-2.1561zm10.8673-.642-1.0789-.0188-.0708 4.0555c-.0205 1.1742-.796 1.9542-1.932 1.9344-1.0726-.0188-1.5702-.6115-1.5484-1.8555l.0732-4.1951-1.079-.0189-.0779 4.4681c-.0289 1.6501.7679 2.5592 2.2657 2.5854 1.0472.0182 1.8426-.4504 2.2257-1.3008l.0889.0016-.0212 1.2122 1.0345.0181zm4.0751-1.7763-.0326 1.8659-1.8342-.032-.016.9203 1.8341.032-.068 3.8969c-.025 1.4343.757 2.0955 2.4643 2.1253.33.0058 1.1683-.0113 1.3402-.0401l.016-.9139c-.1844.0158-.8765.0228-1.2637.016-.971-.0169-1.4907-.4323-1.4776-1.1812l.0678-3.8842 2.7798.0485.0161-.9202-2.7925-.0488.0325-1.8659zm10.9472 7.1492c-.2009.5996-.8484.9565-1.7179.9413-1.1741-.0205-1.9088-.8459-1.8868-2.1089l.0049-.2793 4.6904001.0819.012-.6727c.034-1.9929-.9985001-3.1981-2.7883001-3.2294-1.7517-.0305-2.9339 1.1424-2.9656 2.9575l-.0181 1.0345c-.0342 1.9611 1.0439 3.1164 2.9352 3.1494 1.4471.0252 2.5518-.7237 2.7818001-1.8561zm-1.7082-4.3406c1.1107.0194 1.7696.8245 1.7466 2.1383l-3.6239-.0633c.023-1.3201.7285-2.095 1.8773-2.075zm-33.48 91.8670995 1.6436 3.679 1.263.022-1.7983-3.91c1.0469-.325 1.7304-1.297 1.7514-2.496.0297-1.701-1.088-2.775-2.9032-2.806l-3.0718-.054-.1598 9.158 1.1043.02.0637-3.65zm-2.0283-4.549 1.8659.032c1.2249.022 1.9117.681 1.8919 1.817-.0199 1.143-.7419 1.771-2.0049 1.749l-1.8152-.031zm9.6482 8.46c1.8215.031 3.0037-1.135 3.0362-2.995l.0181-1.041c.0325-1.859-1.1082-3.066-2.9297-3.098s-3.0037 1.135-3.0362 2.994l-.0181 1.041c-.0325 1.86 1.1082 3.067 2.9297 3.099zm.1079-6.182c1.1805.02 1.9021.871 1.8785 2.223l-.0147.844c-.0237 1.358-.7745 2.177-1.9549 2.156-1.1805-.02-1.9022-.865-1.8785-2.223l.0147-.844c.0236-1.352.7744-2.177 1.9549-2.156zm10.8674-.642-1.079-.019-.0707 4.056c-.0205 1.174-.796 1.954-1.932 1.934-1.0726-.019-1.5702-.612-1.5485-1.855l.0733-4.196-1.079-.018-.078 4.468c-.0288 1.65.768 2.559 2.2658 2.585 1.0472.018 1.8426-.45 2.2257-1.301l.0888.002-.0211 1.212 1.0345.018zm4.0751-1.776-.0326 1.866-1.8342-.033-.0161.921 1.8342.032-.068 3.897c-.025 1.434.757 2.095 2.4643 2.125.33.006 1.1683-.011 1.3402-.04l.016-.914c-.1844.016-.8765.023-1.2637.016-.971-.017-1.4907-.432-1.4776-1.181l.0678-3.884 2.7798.048.0161-.92-2.7926-.049.0326-1.866zm10.9472 7.149c-.201.599-.8484.956-1.7179.941-1.1741-.02-1.9089-.846-1.8868-2.109l.0049-.279 4.6902.082.0117-.673c.0348-1.993-.998-3.198-2.7878-3.229-1.7517-.031-2.934 1.142-2.9656 2.957l-.0181 1.035c-.0342 1.961 1.0439 3.116 2.9352 3.149 1.4471.025 2.5521-.724 2.7814-1.856zm-1.7082-4.341c1.1106.02 1.7695.825 1.7466 2.138l-3.6239-.063c.023-1.32.7285-2.095 1.8773-2.075zm63.7975001 24.335c-1.332-.023-2.091-.912-2.065-2.417l.103-5.908-1.117-.02-.104 5.979c-.037 2.107 1.147 3.391 3.165 3.426s3.246-1.207 3.283-3.314l.104-5.978-1.117-.02-.103 5.909c-.026 1.504-.816 2.366-2.149 2.343zm5.601-4.06c-.017.977.588 1.616 1.826 1.923l1.018.253c.873.212 1.204.51 1.194 1.056-.011.66-.615 1.075-1.554 1.058-.889-.015-1.492-.394-1.639-1.032l-1.098-.019c.1 1.183 1.121 1.931 2.683 1.958 1.631.029 2.705-.778 2.727-2.047.018-.997-.582-1.591-1.915-1.919l-.968-.239c-.859-.206-1.21-.51-1.2-1.037.011-.629.583-1.025 1.458-1.01.806.015 1.378.393 1.494.998l1.041.018c-.107-1.151-1.066-1.885-2.5-1.91-1.517-.027-2.546.755-2.567 1.949zm12.345 3.466c-.201.599-.849.956-1.718.941-1.174-.021-1.909-.846-1.887-2.109l.005-.279 4.69.082.012-.673c.035-1.993-.998-3.198-2.788-3.23-1.752-.03-2.934 1.143-2.966 2.958l-.018 1.034c-.034 1.962 1.044 3.117 2.935 3.15 1.448.025 2.553-.724 2.782-1.856zm-1.709-4.341c1.111.019 1.77.824 1.747 2.138l-3.624-.063c.023-1.32.729-2.095 1.877-2.075zm7.634 3.136c.03-1.752.95-2.789 2.473-2.763.375.007.818.091 1.133.21l.021-1.212c-.227-.099-.6-.163-.994-.169-1.326-.024-2.194.621-2.471 1.893l-.139-.003.031-1.758-2.571-.045-.015.864 1.53.026-.09 5.16-1.39-.024-.015.863 4.576.08.015-.863-2.133-.038zm-91.0358001 33.985.0075-3.708.0826.002 1.752 5.103.8758.015 1.9291-5.039.0825.002-.1218 3.705-.0614 3.516.9964.018.1599-9.159-1.2567-.021-2.0984 5.651-.0825-.001-1.9127-5.722-1.2503-.022-.1598 9.159.9964.017zm9.5768001 3.805c1.003.017 1.759-.382 2.102-1.113l.108.002-.018 1.035 1.028.018.082-4.716c.025-1.434-.887-2.275-2.505-2.304-1.409-.024-2.489.712-2.635 1.814l1.06.019c.188-.587.752-.914 1.546-.9.958.017 1.477.502 1.462 1.365l-.011.622-1.893.062c-1.569.055-2.4580001.764-2.4790001 1.982-.022 1.251.8400001 2.091 2.1530001 2.114zm.328-.94c-.87-.016-1.401-.469-1.389-1.193.013-.717.528-1.121 1.493-1.148l1.772-.052-.014.813c-.016.92-.821 1.598-1.862 1.58zm8.678-7.601c.507.009.901-.365.91-.873.009-.501-.372-.888-.879-.897-.508-.009-.902.365-.911.866-.009.508.372.896.88.904zm2.738 8.625.015-.895-2.278-.039.105-5.992-3.409-.059-.015.895 2.342.041-.089 5.096-2.361-.041-.016.895zm8.035.14.015-.894-2.272-.04.152-8.695-3.415-.06-.015.895 2.335.041-.136 7.8-2.354-.041-.016.895zm238.176-1.524 1.253 5.704 1.053.018 1.734-9.131-1.06-.018-.616 3.658-.619 3.805-.07-.001-1.188-5.411-1.002-.017-1.377 5.366-.069-.001-.486-3.824-.488-3.678-1.06-.019 1.414 9.186 1.054.018 1.451-5.657zm9.788 4.075c-.201.6-.848.957-1.718.941-1.174-.02-1.909-.846-1.887-2.109l.005-.279 4.691.082.011-.673c.035-1.993-.998-3.198-2.788-3.229-1.751-.031-2.933 1.142-2.965 2.957l-.018 1.035c-.034 1.961 1.044 3.116 2.935 3.149 1.447.026 2.552-.723 2.781-1.856zm-1.708-4.34c1.111.019 1.77.824 1.747 2.138l-3.624-.064c.023-1.32.728-2.095 1.877-2.074zm10.861 6.277.015-.894-2.272-.04.152-8.695-3.414-.06-.016.895 2.336.041-.137 7.8-2.354-.041-.016.895zm7.978-4.603c-.153-1.418-1.179-2.299-2.702-2.326-1.872-.033-2.984 1.097-3.019 3.071l-.015.901c-.035 1.974 1.037 3.142 2.909 3.174 1.523.027 2.585-.812 2.781-2.211l-1.066-.019c-.147.785-.828 1.274-1.717 1.259-1.2-.021-1.852-.845-1.826-2.324l.011-.622c.026-1.479.706-2.286 1.906-2.265.888.016 1.552.535 1.672 1.344zm5.081 4.958c1.822.032 3.004-1.134 3.036-2.994l.018-1.041c.033-1.859-1.108-3.067-2.929-3.098-1.822-.032-3.004 1.134-3.037 2.994l-.018 1.041c-.032 1.859 1.109 3.067 2.93 3.098zm.108-6.181c1.18.02 1.902.871 1.878 2.223l-.014.844c-.024 1.358-.775 2.177-1.955 2.156-1.181-.021-1.902-.865-1.879-2.223l.015-.844c.024-1.352.774-2.177 1.955-2.156zm11.337 1.182c.022-1.276-.467-1.951-1.426-1.968-.692-.012-1.251.397-1.44 1.054l-.115-.002c-.134-.682-.584-1.089-1.231-1.101-.647-.011-1.15.387-1.333 1.075l-.114-.002.017-.971-.965-.016-.12 6.886.971.017.081-4.646c.015-.857.405-1.377 1.014-1.366.584.01.881.453.867 1.284l-.083 4.76.964.017.081-4.645c.015-.857.393-1.378.996-1.367.577.01.874.453.859 1.291l-.083 4.754.972.017zm6.518 3.408c-.201.6-.849.957-1.718.942-1.174-.021-1.909-.846-1.887-2.109l.005-.28 4.69.082.012-.672c.035-1.993-.998-3.199-2.788-3.23-1.752-.03-2.934 1.143-2.966 2.958l-.018 1.034c-.034 1.961 1.044 3.117 2.936 3.15 1.447.025 2.552-.724 2.781-1.856zm-1.709-4.34c1.111.019 1.77.824 1.747 2.138l-3.624-.063c.023-1.32.729-2.095 1.877-2.075zm5.611 2.669.007-3.708.083.002 1.752 5.103.875.015 1.93-5.039.082.002-.122 3.705-.061 3.516.996.018.16-9.159-1.257-.021-2.098 5.651-.082-.001-1.913-5.722-1.25-.022-.16 9.159.996.017zm12.168 1.952c-.201.599-.849.956-1.718.941-1.174-.02-1.909-.846-1.887-2.109l.005-.279 4.69.082.012-.673c.034-1.993-.998-3.198-2.788-3.229-1.752-.031-2.934 1.142-2.966 2.957l-.018 1.035c-.034 1.961 1.044 3.116 2.935 3.149 1.447.025 2.552-.724 2.782-1.856zm-1.709-4.341c1.111.02 1.77.825 1.747 2.138l-3.624-.063c.023-1.32.729-2.095 1.877-2.075zm5.434 1.155c-.017.978.587 1.617 1.826 1.924l1.018.253c.872.212 1.204.51 1.194 1.055-.011.66-.615 1.075-1.555 1.059-.888-.016-1.491-.394-1.639-1.032l-1.098-.019c.1 1.183 1.122 1.931 2.683 1.958 1.631.028 2.706-.778 2.728-2.048.017-.996-.582-1.591-1.916-1.919l-.967-.239c-.86-.205-1.21-.51-1.201-1.036.011-.629.583-1.025 1.459-1.01.806.014 1.377.392 1.494.998l1.04.018c-.106-1.151-1.065-1.885-2.499-1.91-1.517-.027-2.547.755-2.567 1.948zm8.035.141c-.018.977.587 1.616 1.826 1.923l1.018.253c.872.212 1.204.51 1.194 1.056-.012.66-.616 1.075-1.555 1.058-.888-.015-1.491-.394-1.639-1.032l-1.098-.019c.1 1.183 1.122 1.931 2.683 1.958 1.631.029 2.706-.778 2.728-2.047.017-.997-.582-1.591-1.916-1.919l-.967-.239c-.86-.206-1.21-.51-1.201-1.037.011-.629.583-1.025 1.459-1.01.806.015 1.377.393 1.494.998l1.04.018c-.106-1.151-1.065-1.885-2.499-1.91-1.517-.027-2.547.755-2.567 1.949zm9.753 5.319c1.003.017 1.759-.382 2.102-1.113l.108.002-.018 1.035 1.028.017.082-4.715c.026-1.434-.887-2.276-2.505-2.304-1.409-.025-2.488.712-2.635 1.814l1.06.019c.188-.587.753-.914 1.546-.9.958.017 1.477.502 1.462 1.365l-.011.622-1.893.062c-1.569.055-2.458.763-2.479 1.982-.022 1.25.84 2.091 2.153 2.114zm.328-.941c-.87-.015-1.401-.469-1.389-1.192.013-.717.528-1.121 1.493-1.149l1.772-.051-.014.812c-.016.921-.821 1.598-1.862 1.58zm8.159 3.552c1.866.033 2.987-.913 3.016-2.531l.12-6.886-1.066-.019-.019 1.066-.121-.002c-.285-.748-1.032-1.199-2.029-1.216-1.612-.028-2.685 1.096-2.716 2.866l-.022 1.238c-.031 1.764.996 2.931 2.589 2.959 1.003.018 1.772-.407 2.09-1.125l.114.002-.019 1.072c-.019 1.105-.696 1.702-1.902 1.681-.92-.016-1.605-.402-1.735-.976l-1.066-.018c.119 1.144 1.173 1.861 2.766 1.889zm-1.749-5.617.016-.946c.023-1.263.773-2.069 1.915-2.049 1.136.02 1.852.845 1.83 2.114l-.016.946c-.023 1.269-.767 2.075-1.903 2.055-1.142-.019-1.864-.857-1.842-2.12zm11.923 1.433c-.201.6-.848.957-1.718.941-1.174-.02-1.909-.846-1.887-2.109l.005-.279 4.69.082.012-.673c.035-1.993-.998-3.198-2.788-3.229-1.751-.031-2.934 1.142-2.965 2.957l-.018 1.035c-.035 1.961 1.044 3.116 2.935 3.149 1.447.026 2.552-.723 2.781-1.856zm-1.708-4.34c1.111.019 1.769.824 1.746 2.138l-3.623-.064c.023-1.32.728-2.095 1.877-2.074z" fill="#ffa94d"/><path d="m105.368905 91.9156645c.628.0109 1.158-.5131 1.169-1.1541.012-.641-.5-1.1833-1.128-1.1942-.628-.011-1.158.513-1.169 1.1541-.011.641.5 1.1832 1.128 1.1942zm-.085 4.8742c.628.011 1.158-.5067 1.169-1.1541.011-.641-.5-1.1768-1.128-1.1878s-1.158.5067-1.169 1.1477c-.012.6474.5 1.1832 1.128 1.1942zm8.12-4.734c.628.011 1.158-.5131 1.169-1.1541s-.5-1.1832-1.128-1.1942c-.628-.0109-1.158.5131-1.169 1.1541s.5 1.1832 1.128 1.1942zm-.085 4.8743c.628.0109 1.158-.5068 1.169-1.1541.011-.641-.5-1.1769-1.128-1.1879-.628-.0109-1.158.5068-1.169 1.1478-.012.6473.5 1.1832 1.128 1.1942zm30.837-4.0836c-.038 2.1579.577 4.0351 1.815 5.4915l1.072.0187c-1.281-1.8698-1.805-3.4978-1.77-5.4907.034-1.9928.615-3.6016 1.961-5.4256l-1.073-.0187c-1.288 1.4123-1.968 3.2733-2.005 5.4248zm129.247 8.9478995 1.266-4.1048995-1.428-.0249-.859 4.1117995zm87.695-5.1610995c-.037 2.1578.577 4.0350995 1.815 5.4910995l1.073.019c-1.282-1.87-1.806-3.4977995-1.771-5.4905995.035-1.9929.615-3.6017 1.961-5.4256l-1.072-.0187c-1.288 1.4123-1.968 3.2732-2.006 5.4248zm9.354 3.8770995c-1.333-.023-2.092-.9129995-2.066-2.4166995l.103-5.9088-1.117-.0195-.104 5.9786c-.037 2.1073995 1.147 3.3913995 3.165 3.4263995 2.019.035 3.247-1.207 3.283-3.3137995l.105-5.9786-1.117-.0195-.103 5.9088c-.027 1.5041-.816 2.3660995-2.149 2.3430995zm5.6-4.0604995c-.017.9774.588 1.6164 1.827 1.9238l1.018.2526c.872.2121 1.203.5101 1.194 1.0561-.012.6599995-.616 1.0739995-1.555 1.0579995-.889-.015-1.491-.394-1.639-1.0319995l-1.098-.019c.1 1.1829995 1.122 1.9309995 2.683 1.9579995 1.631.028 2.705-.778 2.728-2.0469995.017-.9969-.582-1.5914-1.916-1.9194l-.967-.2391c-.86-.2055-1.21-.51-1.201-1.0368.011-.6283.583-1.0246 1.459-1.0093.806.0141 1.377.3922 1.493.9974l1.041.0182c-.107-1.151-1.065-1.8851-2.499-1.9102-1.517-.0264-2.547.7555-2.568 1.9487zm12.345 3.4655c-.201.5999995-.848.9569995-1.718.9419995-1.174-.021-1.909-.846-1.887-2.1090995l.005-.2793 4.691.0819.011-.6728c.035-1.9928-.998-3.198-2.788-3.2293-1.751-.0306-2.934 1.1424-2.965 2.9575l-.018 1.0345c-.034 1.9615995 1.044 3.1165995 2.935 3.1495995 1.447.025 2.552-.724 2.781-1.8559995zm-1.708-4.3401c1.111.0194 1.769.8245 1.747 2.1383l-3.624-.0633c.023-1.3201.728-2.095 1.877-2.075zm7.633 3.1362c.031-1.7517.951-2.7895 2.474-2.7629.374.0065.817.0904 1.132.2102l.022-1.2122c-.227-.0992-.601-.1629-.994-.1697-1.327-.0232-2.195.6219-2.471 1.8932l-.14-.0025.031-1.758-2.57-.0449-.015.8632 1.529.0267-.09 5.1597995-1.39-.024-.015.863 4.576.08.015-.863-2.132-.038zm27.262-3.327-1.079-.0188-.07 4.0557c-.021 1.1739995-.796 1.9539995-1.932 1.9339995-1.073-.019-1.571-.611-1.549-1.8549995l.073-4.1954-1.079-.0189-.078 4.4683c-.028 1.6499995.768 2.5589995 2.266 2.5849995 1.047.018 1.843-.45 2.226-1.301l.089.002-.021 1.212 1.034.018zm2.678 1.9069c-.017.9774.587 1.6164 1.826 1.924l1.018.252c.873.212 1.204.51 1.194 1.0559995-.011.66-.615 1.075-1.555 1.059-.888-.016-1.491-.395-1.639-1.032l-1.098-.019c.1 1.182 1.122 1.93 2.684 1.957 1.631.029 2.705-.778 2.727-2.047.017-.9959995-.582-1.5908995-1.915-1.9188995l-.968-.2391c-.859-.2055-1.21-.51-1.2-1.0368.011-.6283.582-1.0246 1.458-1.0093.806.0141 1.377.3922 1.494.9974l1.041.0182c-.107-1.151-1.066-1.8851-2.5-1.9102-1.517-.0264-2.546.7555-2.567 1.9487zm12.345 3.4659995c-.201.6-.849.956-1.718.941-1.174-.02-1.909-.846-1.887-2.1089995l.005-.279 4.69.082.012-.6728c.034-1.9928-.998-3.198-2.788-3.2293-1.752-.0306-2.934 1.1424-2.966 2.9575l-.018 1.0346c-.034 1.9609995 1.044 3.1159995 2.935 3.1489995 1.447.026 2.553-.723 2.782-1.856zm-1.709-4.3405995c1.111.0194 1.77.8245 1.747 2.1383l-3.624-.0633c.023-1.3201.729-2.095 1.877-2.075zm7.634 3.1366c.03-1.7521.95-2.7899 2.473-2.7633.375.0065.818.0904 1.133.2102l.021-1.2122c-.227-.0992-.6-.1629-.994-.1697-1.326-.0232-2.194.6219-2.471 1.8932l-.139-.0025.03-1.758-2.57-.0449-.015.8632 1.53.0267-.091 5.1602995-1.389-.025-.016.863 4.576.08.016-.863-2.133-.037zm9.717-1.3291c.038-2.1515-.577-4.0351-1.815-5.4915l-1.072-.0187c1.281 1.8698 1.805 3.4979 1.77 5.4907-.034 1.9925995-.615 3.6015995-1.961 5.4255995l1.073.019c1.288-1.413 1.968-3.267 2.005-5.4250995zm17.067 5.7510995.015-.869-.692-.012c-.952-.017-1.132-.242-1.113-1.347l.03-1.694c.015-.8889995-.641-1.4905995-1.929-1.5383995l.002-.1016c1.289-.0092 1.966-.5878 1.981-1.4764l.03-1.6945c.019-1.1044.207-1.3233 1.159-1.3067l.692.0121.015-.8695-.863-.0151c-1.543-.0269-2.04.4533-2.067 2.0209l-.025 1.4217c-.017.9837-.598 1.5386-2.081 1.3604l-.02 1.1491c1.488-.1268 2.049.454 2.032 1.4319995l-.025 1.421c-.027 1.568.453 2.065 1.995 2.092zm-305.163 4.918-1.079-.018-.071 4.055c-.02 1.174-.796 1.954-1.932 1.934-1.072-.018-1.57-.611-1.548-1.855l.073-4.195-1.079-.019-.078 4.468c-.029 1.65.768 2.559 2.266 2.585 1.047.019 1.843-.45 2.226-1.3l.088.001-.021 1.212 1.035.019zm2.678 1.907c-.017.978.587 1.617 1.826 1.924l1.018.253c.872.212 1.204.51 1.194 1.055-.011.66-.615 1.075-1.555 1.059-.888-.016-1.491-.394-1.639-1.032l-1.098-.019c.1 1.183 1.122 1.93 2.683 1.958 1.631.028 2.706-.778 2.728-2.048.017-.996-.582-1.591-1.916-1.919l-.967-.239c-.86-.205-1.21-.51-1.201-1.036.011-.629.583-1.025 1.459-1.01.806.014 1.377.392 1.494.998l1.04.018c-.106-1.151-1.065-1.885-2.499-1.91-1.517-.027-2.547.755-2.567 1.948zm12.344 3.466c-.201.6-.848.957-1.718.942-1.174-.021-1.908-.846-1.886-2.109l.005-.28 4.69.082.011-.672c.035-1.993-.998-3.199-2.787-3.23-1.752-.03-2.934 1.143-2.966 2.958l-.018 1.034c-.034 1.961 1.044 3.117 2.935 3.15 1.447.025 2.552-.724 2.782-1.856zm-1.708-4.34c1.111.019 1.77.824 1.747 2.138l-3.624-.063c.023-1.32.728-2.095 1.877-2.075zm7.634 3.136c.03-1.752.95-2.79 2.473-2.763.374.006.817.09 1.133.21l.021-1.212c-.227-.099-.6-.163-.994-.17-1.326-.023-2.195.622-2.471 1.893l-.139-.002.03-1.758-2.57-.045-.015.863 1.529.027-.09 5.16-1.39-.024-.015.863 4.576.08.015-.864-2.132-.037zm8.338-1.607c.628.011 1.158-.513 1.169-1.154s-.5-1.183-1.128-1.194-1.158.513-1.169 1.154.5 1.183 1.128 1.194zm-.673 6.94 1.265-4.111-1.428-.025-.859 4.118zm-130.7745001 14.476.8631.015c1.5423.027 2.0395-.453 2.0669-2.021l.0248-1.422c.017-.977.5982-1.538 2.0807-1.36l.02-1.149c-1.4878.127-2.0491-.448-2.0319-1.432l.0248-1.422c.0274-1.567-.4528-2.064-1.9951-2.091l-.8631-.015-.0152.869.6918.012c.952.017 1.1322.242 1.1129 1.346l-.0296 1.695c-.0155.889.6406 1.49 1.9284 1.545l-.0017.101c-1.2888.003-1.9656.582-1.9811 1.47l-.0295 1.695c-.0193 1.104-.2072 1.323-1.1593 1.306l-.6917-.012zm11.9888-5.244c.0376-2.152-.5771-4.035-1.815-5.492l-1.0726-.019c1.2815 1.87 1.8054 3.498 1.7706 5.491s-.6152 3.602-1.9612 5.426l1.0726.018c1.288-1.412 1.968-3.266 2.0056-5.424zm6.6558-.138c.6283.011 1.1581-.513 1.1692-1.154.0112-.641-.4999-1.183-1.1282-1.194s-1.1581.513-1.1693 1.154c-.0111.641.5 1.183 1.1283 1.194zm-.6735 6.94 1.2653-4.111-1.428-.025-.8591 4.118zm23.8354001 47.472c.629.011 1.158-.513 1.17-1.154.011-.641-.5-1.183-1.129-1.194-.628-.011-1.158.513-1.169 1.154s.5 1.183 1.128 1.194zm-.085 4.875c.629.011 1.158-.507 1.17-1.154.011-.641-.5-1.177-1.129-1.188-.628-.011-1.158.507-1.169 1.148-.011.647.5 1.183 1.128 1.194zm8.12-4.734c.629.011 1.158-.513 1.17-1.154.011-.641-.5-1.184-1.129-1.195-.628-.011-1.158.513-1.169 1.155-.011.641.5 1.183 1.128 1.194zm-.085 4.874c.629.011 1.158-.507 1.169-1.154.012-.641-.5-1.177-1.128-1.188s-1.158.507-1.169 1.148c-.011.647.5 1.183 1.128 1.194zm38.872-3.943c-.038 2.158.577 4.035 1.815 5.491l1.073.019c-1.282-1.87-1.806-3.498-1.771-5.491s.615-3.601 1.961-5.425l-1.073-.019c-1.288 1.412-1.968 3.273-2.005 5.425zm73.003 7.965 1.265-4.104-1.428-.025-.859 4.112zm87.695-5.16c-.038 2.158.577 4.035 1.815 5.491l1.073.019c-1.282-1.87-1.806-3.498-1.771-5.491s.615-3.601 1.961-5.425l-1.072-.019c-1.288 1.412-1.968 3.273-2.006 5.425zm9.563 3.881c-1.485-.026-2.242-1.036-2.209-2.934l.029-1.631c.033-1.898.825-2.881 2.303-2.855 1.174.021 1.979.866 1.995 2.105l1.136.019c-.004-1.955-1.176-3.15-3.106-3.184-2.151-.037-3.427 1.394-3.471 3.895l-.028 1.631c-.044 2.501 1.181 3.976 3.333 4.013 1.872.033 3.175-1.144 3.206-2.915l-1.13-.019c-.052 1.179-.839 1.896-2.058 1.875zm7.591-2.084c.031-1.751.951-2.789 2.474-2.763.374.007.817.091 1.133.211l.021-1.213c-.227-.099-.601-.162-.994-.169-1.327-.023-2.195.622-2.471 1.893l-.14-.002.031-1.759-2.57-.044-.015.863 1.529.026-.09 5.16-1.39-.024-.015.863 4.576.08.015-.863-2.132-.037zm10.145 1.485c-.201.6-.848.957-1.718.942-1.174-.021-1.909-.846-1.887-2.109l.005-.28 4.69.082.012-.672c.035-1.993-.998-3.199-2.788-3.23-1.751-.03-2.934 1.143-2.965 2.958l-.018 1.034c-.035 1.961 1.043 3.117 2.935 3.15 1.447.025 2.552-.724 2.781-1.856zm-1.708-4.34c1.11.019 1.769.824 1.746 2.138l-3.624-.063c.023-1.32.729-2.095 1.878-2.075zm7.152 6.334c1.003.017 1.759-.382 2.102-1.113l.108.002-.018 1.035 1.028.017.082-4.715c.025-1.434-.887-2.276-2.505-2.304-1.409-.025-2.489.712-2.635 1.814l1.06.019c.188-.587.752-.914 1.546-.9.958.016 1.476.502 1.461 1.365l-.011.622-1.893.062c-1.569.055-2.457.763-2.478 1.982-.022 1.25.839 2.091 2.153 2.114zm.328-.941c-.87-.015-1.402-.469-1.389-1.192.012-.717.527-1.121 1.493-1.149l1.772-.051-.014.812c-.016.921-.822 1.598-1.862 1.58zm7.385-7.781-.032 1.866-1.834-.032-.016.92 1.834.032-.068 3.897c-.025 1.434.757 2.095 2.464 2.125.33.006 1.168-.011 1.34-.04l.016-.914c-.184.016-.876.023-1.263.016-.971-.017-1.491-.432-1.478-1.181l.068-3.884 2.78.048.016-.92-2.793-.049.033-1.866zm10.948 7.149c-.201.6-.849.957-1.718.941-1.174-.02-1.909-.846-1.887-2.109l.005-.279 4.69.082.012-.673c.035-1.993-.998-3.198-2.788-3.229-1.752-.031-2.934 1.142-2.966 2.957l-.018 1.035c-.034 1.961 1.044 3.116 2.936 3.149 1.447.026 2.552-.723 2.781-1.856zm-1.709-4.341c1.111.02 1.77.825 1.747 2.139l-3.624-.064c.023-1.32.729-2.095 1.877-2.075zm7.868 5.356c-1.333-.023-2.092-.912-2.065-2.416l.103-5.909-1.117-.02-.105 5.979c-.036 2.107 1.147 3.391 3.166 3.426 2.018.036 3.246-1.206 3.283-3.314l.104-5.978-1.117-.02-.103 5.909c-.026 1.504-.816 2.367-2.149 2.343zm5.601-4.06c-.017.977.587 1.616 1.826 1.924l1.018.252c.872.212 1.204.51 1.194 1.056-.011.66-.615 1.075-1.555 1.058-.888-.015-1.491-.394-1.639-1.031l-1.098-.019c.1 1.182 1.122 1.93 2.683 1.957 1.631.029 2.706-.778 2.728-2.047.017-.997-.582-1.591-1.916-1.919l-.967-.239c-.86-.206-1.21-.51-1.201-1.037.011-.628.583-1.025 1.459-1.009.806.014 1.377.392 1.494.997l1.041.018c-.107-1.151-1.066-1.885-2.5-1.91-1.517-.026-2.546.756-2.567 1.949zm12.344 3.466c-.201.599-.848.956-1.717.941-1.175-.02-1.909-.846-1.887-2.109l.005-.279 4.69.082.012-.673c.034-1.993-.999-3.198-2.788-3.229-1.752-.031-2.934 1.142-2.966 2.957l-.018 1.035c-.034 1.961 1.044 3.116 2.935 3.149 1.447.025 2.552-.724 2.782-1.856zm-1.708-4.341c1.111.02 1.77.825 1.747 2.138l-3.624-.063c.023-1.32.728-2.095 1.877-2.075zm7.634 3.136c.03-1.751.95-2.789 2.473-2.763.374.007.817.091 1.133.211l.021-1.213c-.227-.099-.6-.162-.994-.169-1.326-.023-2.195.622-2.471 1.893l-.139-.002.03-1.759-2.57-.044-.015.863 1.529.026-.09 5.16-1.39-.024-.015.863 4.576.08.015-.863-2.132-.037zm8.666-.413 1.644 3.679 1.263.022-1.798-3.911c1.047-.324 1.73-1.296 1.751-2.496.03-1.701-1.088-2.774-2.903-2.806l-3.072-.053-.16 9.158 1.105.019.063-3.649zm-2.028-4.55 1.866.033c1.225.021 1.912.681 1.892 1.817-.02 1.142-.742 1.771-2.005 1.749l-1.815-.032zm11.541 6.589c-.201.599-.848.956-1.718.941-1.174-.021-1.909-.846-1.887-2.109l.005-.279 4.691.082.011-.673c.035-1.993-.998-3.198-2.788-3.23-1.751-.03-2.934 1.143-2.965 2.958l-.018 1.034c-.034 1.962 1.044 3.117 2.935 3.15 1.447.025 2.552-.724 2.781-1.856zm-1.708-4.341c1.111.019 1.769.824 1.747 2.138l-3.624-.063c.023-1.32.728-2.095 1.877-2.075zm7.543-.783c-1.593-.027-2.654 1.103-2.685 2.874l-.022 1.282c-.031 1.764.99 2.931 2.583 2.959.996.017 1.734-.395 2.045-1.145l.121.002-.06 3.389 1.098.019.161-9.209-1.066-.018-.018 1.053-.115-.002c-.348-.768-1.058-1.186-2.042-1.204zm.294.996c1.136.02 1.845.845 1.823 2.114l-.017.99c-.023 1.276-.76 2.076-1.896 2.056s-1.846-.851-1.823-2.121l.017-.99c.022-1.269.76-2.069 1.896-2.049zm10.988-.684-1.078-.019-.071 4.055c-.021 1.174-.796 1.955-1.932 1.935-1.073-.019-1.57-.612-1.549-1.856l.074-4.195-1.079-.019-.078 4.468c-.029 1.65.768 2.56 2.265 2.586 1.048.018 1.843-.451 2.226-1.301l.089.002-.021 1.212 1.034.018zm6.988 5.232c-.201.6-.849.957-1.718.942-1.174-.021-1.909-.846-1.887-2.109l.005-.28 4.69.082.012-.672c.035-1.993-.998-3.199-2.788-3.23-1.752-.03-2.934 1.143-2.965 2.958l-.019 1.034c-.034 1.961 1.044 3.117 2.936 3.15 1.447.025 2.552-.724 2.781-1.856zm-1.708-4.34c1.11.019 1.769.824 1.746 2.138l-3.624-.063c.023-1.32.729-2.095 1.878-2.075zm5.433 1.155c-.017.977.588 1.616 1.827 1.924l1.017.252c.873.212 1.204.51 1.194 1.056-.011.66-.615 1.075-1.554 1.058-.889-.015-1.492-.394-1.639-1.031l-1.098-.019c.1 1.182 1.121 1.93 2.683 1.957 1.631.029 2.705-.778 2.727-2.047.018-.997-.582-1.591-1.915-1.919l-.968-.239c-.859-.206-1.21-.51-1.2-1.037.011-.628.583-1.025 1.458-1.009.806.014 1.378.392 1.494.997l1.041.018c-.107-1.151-1.066-1.885-2.5-1.91-1.517-.026-2.546.756-2.567 1.949zm9.432-3.543-.032 1.866-1.834-.032-.016.92 1.834.032-.068 3.897c-.025 1.434.757 2.095 2.464 2.125.33.006 1.168-.011 1.34-.04l.016-.914c-.184.016-.876.023-1.263.016-.972-.017-1.491-.432-1.478-1.181l.068-3.884 2.78.048.016-.92-2.793-.049.033-1.866zm13.986 6.561c.069 1.506 1.144 2.502 2.823 2.658l-.012.705.755.013.013-.711c1.697-.103 2.793-1.1 2.82-2.611.023-1.364-.706-2.132-2.52-2.615l-.208-.061.057-3.293c.899.142 1.493.718 1.586 1.57l1.002.017c-.051-1.397-1.057-2.367-2.571-2.533l.012-.711-.755-.013-.012.711c-1.615.098-2.66 1.052-2.685 2.486-.023 1.32.744 2.127 2.463 2.582l.133.034-.061 3.478c-1.039-.138-1.739-.773-1.824-1.688zm1.347-4.402c.015-.869.628-1.436 1.626-1.527l-.054 3.104c-1.143-.344-1.586-.79-1.572-1.577zm4.016 4.489c-.016.901-.719 1.53-1.768 1.633l.058-3.288c1.219.339 1.725.83 1.71 1.655zm5.559-.563c.03-1.752.95-2.79 2.473-2.763.375.006.818.09 1.133.21l.021-1.212c-.227-.099-.6-.163-.994-.17-1.326-.023-2.195.622-2.471 1.893l-.139-.002.03-1.758-2.57-.045-.015.863 1.529.027-.09 5.16-1.39-.024-.015.863 4.576.08.015-.864-2.132-.037zm10.144 1.485c-.201.599-.848.956-1.718.941-1.174-.02-1.908-.846-1.886-2.109l.004-.279 4.691.082.011-.673c.035-1.993-.998-3.198-2.787-3.229-1.752-.031-2.934 1.142-2.966 2.957l-.018 1.035c-.034 1.961 1.044 3.116 2.935 3.149 1.447.025 2.552-.724 2.782-1.856zm-1.708-4.341c1.111.02 1.77.825 1.747 2.138l-3.624-.063c.023-1.32.728-2.095 1.877-2.075zm7.543-.782c-1.593-.028-2.654 1.102-2.685 2.873l-.022 1.282c-.031 1.765.99 2.932 2.583 2.959.996.018 1.734-.395 2.045-1.145l.121.002-.059 3.389 1.098.02.16-9.209-1.066-.019-.018 1.053-.114-.002c-.349-.767-1.059-1.186-2.043-1.203zm.294.995c1.136.02 1.845.845 1.823 2.114l-.017.99c-.022 1.276-.76 2.076-1.896 2.056s-1.845-.851-1.823-2.12l.017-.991c.022-1.269.76-2.069 1.896-2.049zm10.989-.684-1.079-.019-.071 4.056c-.021 1.174-.796 1.954-1.932 1.934-1.073-.019-1.57-.612-1.548-1.855l.073-4.196-1.079-.018-.078 4.468c-.029 1.65.768 2.559 2.266 2.585 1.047.018 1.842-.45 2.225-1.301l.089.002-.021 1.212 1.034.018zm6.987 5.233c-.201.599-.848.956-1.718.941-1.174-.021-1.909-.846-1.887-2.109l.005-.279 4.69.082.012-.673c.035-1.993-.998-3.198-2.788-3.23-1.751-.03-2.934 1.143-2.965 2.958l-.018 1.034c-.035 1.962 1.044 3.117 2.935 3.15 1.447.025 2.552-.724 2.781-1.856zm-1.708-4.341c1.111.019 1.769.824 1.746 2.138l-3.623-.063c.023-1.32.728-2.095 1.877-2.075zm5.433 1.155c-.017.977.588 1.616 1.827 1.924l1.017.252c.873.213 1.204.51 1.195 1.056-.012.66-.616 1.075-1.555 1.059-.889-.016-1.492-.395-1.639-1.032l-1.098-.019c.1 1.182 1.122 1.93 2.683 1.958 1.631.028 2.705-.779 2.727-2.048.018-.996-.581-1.591-1.915-1.919l-.967-.239c-.86-.205-1.21-.51-1.201-1.037.011-.628.583-1.024 1.459-1.009.806.014 1.377.392 1.493.997l1.041.019c-.107-1.151-1.065-1.886-2.5-1.911-1.517-.026-2.546.756-2.567 1.949zm9.433-3.543-.033 1.866-1.834-.032-.016.92 1.834.032-.068 3.897c-.025 1.434.757 2.096 2.464 2.126.33.005 1.169-.012 1.34-.041l.016-.914c-.184.016-.876.023-1.263.017-.971-.017-1.491-.433-1.478-1.182l.068-3.884 2.78.049.016-.921-2.793-.048.033-1.866zm10.52 4.336c.037-2.152-.577-4.035-1.815-5.492l-1.073-.019c1.282 1.87 1.805 3.498 1.771 5.491-.035 1.993-.615 3.602-1.961 5.426l1.072.019c1.288-1.413 1.968-3.267 2.006-5.425zm17.066 5.751.015-.869-.692-.013c-.952-.016-1.132-.241-1.113-1.346l.03-1.694c.016-.889-.641-1.491-1.928-1.539l.001-.101c1.289-.009 1.966-.588 1.981-1.477l.03-1.694c.019-1.104.207-1.323 1.159-1.307l.692.012.015-.869-.863-.015c-1.542-.027-2.039.453-2.067 2.021l-.025 1.421c-.017.984-.598 1.539-2.08 1.361l-.02 1.148c1.487-.126 2.049.455 2.032 1.433l-.025 1.421c-.028 1.568.453 2.065 1.995 2.092zm-441.756 2.534-1.079-.019-.071 4.056c-.02 1.174-.796 1.954-1.932 1.934-1.072-.019-1.57-.612-1.548-1.855l.073-4.196-1.079-.018-.078 4.468c-.029 1.65.768 2.559 2.266 2.585 1.047.018 1.843-.45 2.226-1.301l.088.002-.021 1.212 1.035.018zm2.678 1.907c-.018.977.587 1.616 1.826 1.924l1.018.252c.872.212 1.204.51 1.194 1.056-.012.66-.616 1.075-1.555 1.058-.888-.015-1.491-.394-1.639-1.031l-1.098-.019c.1 1.182 1.122 1.93 2.683 1.957 1.631.029 2.706-.778 2.728-2.047.017-.997-.582-1.591-1.916-1.919l-.967-.239c-.86-.206-1.21-.51-1.201-1.037.011-.628.583-1.025 1.459-1.009.806.014 1.377.392 1.494.997l1.04.018c-.106-1.151-1.065-1.885-2.499-1.91-1.517-.026-2.547.756-2.567 1.949zm12.344 3.466c-.201.599-.848.956-1.718.941-1.174-.02-1.908-.846-1.886-2.109l.004-.279 4.691.082.011-.673c.035-1.993-.998-3.198-2.787-3.229-1.752-.031-2.934 1.142-2.966 2.957l-.018 1.035c-.034 1.961 1.044 3.116 2.935 3.149 1.447.025 2.552-.724 2.781-1.856zm-1.708-4.341c1.111.02 1.77.825 1.747 2.138l-3.624-.063c.023-1.32.728-2.095 1.877-2.075zm7.633 3.136c.031-1.751.951-2.789 2.474-2.763.374.007.817.091 1.133.211l.021-1.213c-.227-.099-.6-.162-.994-.169-1.326-.023-2.195.622-2.471 1.893l-.14-.002.031-1.759-2.57-.044-.015.863 1.529.026-.09 5.16-1.39-.024-.015.863 4.576.08.015-.863-2.132-.037zm19.734-1.553.018-1.048-6.715-.117-.018 1.047zm-.051 2.894.019-1.048-6.715-.117-.019 1.047zm44.9-1.966c.629.011 1.158-.513 1.17-1.154.011-.641-.5-1.183-1.129-1.194-.628-.011-1.158.513-1.169 1.154s.5 1.183 1.128 1.194zm-.085 4.875c.628.011 1.158-.507 1.169-1.154.012-.641-.5-1.177-1.128-1.188s-1.158.507-1.169 1.148c-.011.647.5 1.183 1.128 1.194zm8.12-4.734c.628.011 1.158-.513 1.169-1.154.012-.641-.5-1.184-1.128-1.195s-1.158.514-1.169 1.155.5 1.183 1.128 1.194zm-.085 4.874c.628.011 1.158-.507 1.169-1.154.012-.641-.5-1.177-1.128-1.188s-1.158.507-1.169 1.148c-.011.647.5 1.183 1.128 1.194zm54.942-3.663c-.038 2.158.577 4.035 1.815 5.492l1.072.018c-1.281-1.869-1.805-3.497-1.77-5.49.034-1.993.615-3.602 1.961-5.426l-1.073-.019c-1.288 1.413-1.968 3.274-2.005 5.425zm6.232 2.274c.069 1.506 1.144 2.502 2.823 2.658l-.012.705.755.013.013-.711c1.697-.103 2.793-1.1 2.82-2.611.024-1.364-.706-2.132-2.519-2.615l-.209-.061.058-3.293c.899.142 1.492.718 1.585 1.57l1.003.017c-.052-1.397-1.057-2.367-2.572-2.533l.013-.711-.756-.013-.012.711c-1.614.098-2.66 1.052-2.685 2.486-.023 1.32.744 2.127 2.463 2.582l.133.034-.061 3.478c-1.039-.138-1.739-.773-1.824-1.688zm1.347-4.402c.015-.869.628-1.436 1.626-1.527l-.054 3.104c-1.143-.344-1.586-.79-1.572-1.577zm4.016 4.489c-.015.901-.718 1.53-1.768 1.633l.058-3.288c1.219.339 1.725.83 1.71 1.655zm5.559-.563c.03-1.752.95-2.79 2.473-2.763.375.006.818.09 1.133.21l.021-1.212c-.227-.099-.6-.163-.994-.17-1.326-.023-2.194.622-2.471 1.893l-.139-.002.031-1.758-2.571-.045-.015.863 1.53.027-.09 5.16-1.39-.024-.015.863 4.576.08.015-.864-2.133-.037zm10.144 1.485c-.2.599-.848.956-1.717.941-1.175-.02-1.909-.846-1.887-2.109l.005-.279 4.69.082.012-.673c.034-1.993-.998-3.198-2.788-3.229-1.752-.031-2.934 1.142-2.966 2.957l-.018 1.035c-.034 1.961 1.044 3.116 2.935 3.149 1.447.025 2.552-.724 2.782-1.856zm-1.708-4.341c1.111.02 1.77.825 1.747 2.138l-3.624-.063c.023-1.32.728-2.095 1.877-2.075zm7.543-.782c-1.593-.028-2.654 1.102-2.684 2.873l-.023 1.282c-.031 1.765.99 2.932 2.583 2.959.997.018 1.734-.395 2.045-1.145l.121.002-.059 3.389 1.098.02.161-9.209-1.067-.019-.018 1.053-.114-.002c-.349-.767-1.059-1.186-2.043-1.203zm.294.995c1.136.02 1.845.845 1.823 2.114l-.017.99c-.022 1.276-.76 2.076-1.896 2.056s-1.845-.851-1.823-2.12l.017-.991c.022-1.269.76-2.069 1.896-2.049zm10.989-.684-1.079-.019-.071 4.056c-.02 1.174-.796 1.954-1.932 1.934-1.073-.019-1.57-.612-1.548-1.855l.073-4.196-1.079-.018-.078 4.468c-.029 1.65.768 2.559 2.266 2.585 1.047.018 1.842-.45 2.225-1.301l.089.002-.021 1.212 1.035.018zm6.987 5.233c-.201.599-.848.956-1.718.941-1.174-.021-1.909-.846-1.887-2.109l.005-.279 4.691.082.011-.673c.035-1.993-.998-3.198-2.788-3.23-1.751-.03-2.933 1.143-2.965 2.958l-.018 1.034c-.034 1.962 1.044 3.117 2.935 3.15 1.447.025 2.552-.724 2.781-1.856zm-1.708-4.341c1.111.019 1.77.824 1.747 2.138l-3.624-.063c.023-1.32.728-2.095 1.877-2.075zm5.433 1.155c-.017.977.588 1.617 1.827 1.924l1.018.252c.872.213 1.203.51 1.194 1.056-.012.66-.616 1.075-1.555 1.059-.889-.016-1.492-.395-1.639-1.032l-1.098-.019c.1 1.182 1.122 1.93 2.683 1.958 1.631.028 2.705-.779 2.728-2.048.017-.996-.582-1.591-1.916-1.919l-.967-.239c-.86-.205-1.21-.51-1.201-1.037.011-.628.583-1.024 1.459-1.009.806.014 1.377.392 1.493.997l1.041.019c-.107-1.151-1.065-1.886-2.5-1.911-1.516-.026-2.546.756-2.567 1.949zm9.433-3.543-.033 1.866-1.834-.032-.016.92 1.834.032-.068 3.897c-.025 1.435.757 2.096 2.464 2.126.33.005 1.169-.012 1.341-.041l.015-.913c-.184.015-.876.022-1.263.016-.971-.017-1.491-.433-1.478-1.182l.068-3.884 2.78.049.016-.921-2.793-.048.033-1.866zm12.476 5.392.017-1.003-6.714-.117-.018 1.003zm2-2.943 4.318 2.495-.002.114-4.402 2.342-.021 1.212 5.514-3.122.016-.94-5.402-3.313zm81.661 3.381c-.038 2.158.577 4.035 1.815 5.492l1.072.018c-1.281-1.869-1.805-3.497-1.77-5.49s.615-3.602 1.961-5.426l-1.073-.019c-1.288 1.413-1.968 3.274-2.005 5.425zm10.802.189c.037-2.152-.577-4.035-1.815-5.492l-1.073-.019c1.282 1.87 1.806 3.498 1.771 5.491s-.615 3.602-1.961 5.426l1.072.019c1.288-1.413 1.968-3.267 2.006-5.425zm8.035.14c.037-2.152-.577-4.035-1.815-5.492l-1.073-.018c1.282 1.87 1.805 3.498 1.771 5.49-.035 1.993-.616 3.602-1.962 5.426l1.073.019c1.288-1.413 1.968-3.267 2.006-5.425zm6.655-.138c.629.011 1.158-.513 1.17-1.154.011-.641-.5-1.183-1.129-1.194-.628-.011-1.158.513-1.169 1.154s.5 1.183 1.128 1.194zm-.673 6.94 1.265-4.111-1.428-.025-.859 4.118zm-313.316 23.585c.628.011 1.158-.513 1.169-1.154s-.5-1.183-1.128-1.194c-.629-.011-1.158.513-1.17 1.154-.011.641.5 1.183 1.129 1.194zm-.085 4.874c.628.011 1.158-.506 1.169-1.154.011-.641-.5-1.177-1.129-1.188-.628-.011-1.157.507-1.169 1.148-.011.647.5 1.183 1.129 1.194zm8.12-4.734c.628.011 1.158-.513 1.169-1.154s-.5-1.183-1.128-1.194c-.629-.011-1.158.513-1.17 1.154-.011.641.5 1.183 1.129 1.194zm-.085 4.874c.628.011 1.157-.506 1.169-1.154.011-.641-.5-1.176-1.129-1.187-.628-.011-1.158.506-1.169 1.147-.011.648.5 1.184 1.129 1.194zm22.801-4.223c-.037 2.158.577 4.035 1.815 5.491l1.073.019c-1.282-1.87-1.805-3.498-1.771-5.491.035-1.993.616-3.601 1.962-5.425l-1.073-.019c-1.288 1.412-1.968 3.273-2.006 5.425zm20.312-1.95-1.079-.019-.071 4.055c-.02 1.175-.796 1.955-1.932 1.935-1.072-.019-1.57-.612-1.548-1.856l.073-4.195-1.079-.019-.078 4.468c-.029 1.651.768 2.56 2.266 2.586 1.047.018 1.842-.451 2.225-1.301l.089.002-.021 1.212 1.035.018zm2.677 1.907c-.017.977.588 1.616 1.827 1.923l1.018.253c.872.212 1.203.51 1.194 1.056-.012.66-.616 1.075-1.555 1.058-.888-.015-1.491-.394-1.639-1.032l-1.098-.019c.1 1.183 1.122 1.931 2.683 1.958 1.631.029 2.706-.778 2.728-2.047.017-.997-.582-1.591-1.916-1.919l-.967-.239c-.86-.206-1.21-.51-1.201-1.037.011-.629.583-1.025 1.459-1.01.806.015 1.377.393 1.493.998l1.041.018c-.107-1.151-1.065-1.885-2.499-1.91-1.517-.027-2.547.755-2.568 1.949zm12.345 3.466c-.201.599-.848.956-1.718.941-1.174-.021-1.909-.846-1.887-2.109l.005-.279 4.691.082.011-.673c.035-1.993-.998-3.198-2.788-3.23-1.751-.03-2.933 1.143-2.965 2.958l-.018 1.034c-.034 1.962 1.044 3.117 2.935 3.15 1.447.025 2.552-.724 2.781-1.856zm-1.708-4.341c1.111.019 1.77.824 1.747 2.138l-3.624-.063c.023-1.32.728-2.095 1.877-2.075zm7.633 3.136c.031-1.752.951-2.789 2.474-2.763.374.007.817.091 1.133.21l.021-1.212c-.227-.099-.601-.163-.994-.169-1.327-.024-2.195.621-2.471 1.893l-.14-.003.031-1.758-2.57-.045-.015.864 1.529.026-.09 5.16-1.39-.024-.015.863 4.576.08.015-.863-2.132-.038zm11.674-.272.017-1.003-6.714-.117-.018 1.003zm2-2.943 4.318 2.494-.002.115-4.402 2.342-.021 1.212 5.514-3.123.016-.939-5.402-3.313zm52.288 2.868c.038-2.151-.577-4.035-1.815-5.491l-1.072-.019c1.281 1.87 1.805 3.498 1.77 5.491s-.615 3.601-1.961 5.425l1.073.019c1.288-1.412 1.968-3.267 2.005-5.425zm9.991 1.197.018-1.003-6.715-.117-.018 1.003zm2.001-2.943 4.318 2.494-.002.115-4.403 2.342-.021 1.212 5.514-3.123.017-.939-5.402-3.313zm41.486 2.68c-.038 2.158.577 4.035 1.815 5.491l1.072.019c-1.281-1.87-1.805-3.498-1.77-5.491.034-1.993.615-3.601 1.961-5.425l-1.073-.019c-1.288 1.412-1.968 3.273-2.005 5.425zm155.43 2.713c.037-2.152-.577-4.035-1.815-5.492l-1.073-.018c1.282 1.869 1.806 3.497 1.771 5.49s-.615 3.602-1.961 5.426l1.072.019c1.288-1.413 1.968-3.267 2.006-5.425zm6.656-.138c.628.011 1.158-.513 1.169-1.154s-.5-1.183-1.128-1.194c-.629-.011-1.158.513-1.17 1.154-.011.641.5 1.183 1.129 1.194zm-.674 6.94 1.266-4.111-1.428-.025-.86 4.118zm-332.576 25.667c.069 1.506 1.143 2.503 2.823 2.659l-.012.704.755.014.013-.711c1.696-.104 2.793-1.101 2.819-2.611.024-1.365-.705-2.133-2.519-2.615l-.208-.061.057-3.294c.899.143 1.492.718 1.585 1.57l1.003.018c-.052-1.398-1.057-2.367-2.571-2.534l.012-.71-.755-.014-.012.711c-1.615.099-2.66 1.052-2.685 2.486-.023 1.321.744 2.128 2.463 2.583l.132.034-.06 3.478c-1.039-.139-1.739-.773-1.825-1.689zm1.347-4.401c.015-.87.628-1.437 1.626-1.527l-.054 3.103c-1.143-.343-1.586-.789-1.572-1.576zm4.016 4.489c-.016.901-.719 1.53-1.768 1.632l.057-3.287c1.22.338 1.725.83 1.711 1.655zm8.716-4.311-1.079-.019-.071 4.055c-.02 1.175-.796 1.955-1.932 1.935-1.073-.019-1.57-.612-1.548-1.856l.073-4.195-1.079-.019-.078 4.468c-.029 1.651.768 2.56 2.266 2.586 1.047.018 1.842-.451 2.225-1.301l.089.002-.021 1.212 1.035.018zm2.677 1.907c-.017.977.588 1.616 1.827 1.923l1.018.253c.872.212 1.203.51 1.194 1.056-.012.66-.616 1.075-1.555 1.058-.889-.015-1.491-.394-1.639-1.032l-1.098-.019c.1 1.183 1.122 1.931 2.683 1.958 1.631.029 2.705-.778 2.728-2.047.017-.997-.582-1.591-1.916-1.919l-.967-.239c-.86-.206-1.21-.51-1.201-1.037.011-.628.583-1.025 1.459-1.01.806.015 1.377.393 1.493.998l1.041.018c-.107-1.151-1.065-1.885-2.5-1.91-1.516-.027-2.546.755-2.567 1.949zm12.345 3.466c-.201.599-.848.956-1.718.941-1.174-.021-1.909-.846-1.887-2.109l.005-.279 4.69.082.012-.673c.035-1.993-.998-3.198-2.788-3.229-1.751-.031-2.934 1.142-2.965 2.957l-.018 1.035c-.035 1.961 1.044 3.116 2.935 3.149 1.447.025 2.552-.724 2.781-1.856zm-1.708-4.341c1.111.019 1.769.824 1.746 2.138l-3.623-.063c.023-1.32.728-2.095 1.877-2.075zm7.633 3.136c.031-1.752.95-2.789 2.474-2.763.374.007.817.091 1.132.21l.022-1.212c-.227-.099-.601-.163-.994-.169-1.327-.024-2.195.621-2.471 1.893l-.14-.003.031-1.758-2.57-.045-.016.864 1.53.026-.09 5.16-1.39-.024-.015.863 4.576.08.015-.863-2.132-.037zm8.339-1.607c.628.011 1.158-.513 1.169-1.154s-.5-1.183-1.128-1.194c-.629-.011-1.158.513-1.17 1.154-.011.641.5 1.184 1.129 1.194zm-.674 6.94 1.266-4.11-1.428-.025-.86 4.118zm-130.7738001 14.476.8631.015c1.5423.027 2.0395-.453 2.0669-2.021l.0248-1.421c.0171-.978.5982-1.539 2.0807-1.361l.02-1.148c-1.4877.126-2.0491-.449-2.0319-1.433l.0248-1.421c.0274-1.568-.4528-2.065-1.995-2.092l-.8632-.015-.0152.869.6918.013c.952.016 1.1322.241 1.1129 1.346l-.0296 1.694c-.0155.889.6406 1.491 1.9285 1.545l-.0018.102c-1.2888.002-1.9655.581-1.9811 1.47l-.0295 1.694c-.0193 1.104-.2072 1.323-1.1592 1.307l-.6918-.012zm11.9889-5.244c.0375-2.152-.5772-4.035-1.8151-5.491l-1.0726-.019c1.2815 1.87 1.8054 3.498 1.7706 5.491-.0348 1.992-.6152 3.601-1.9612 5.425l1.0726.019c1.2881-1.412 1.968-3.267 2.0057-5.425zm6.6557-.138c.6283.011 1.1581-.513 1.1693-1.154.0111-.641-.5-1.183-1.1283-1.194s-1.1581.513-1.1692 1.154c-.0112.641.4999 1.183 1.1282 1.194zm-.6735 6.94 1.2653-4.111-1.428-.025-.8591 4.118z" fill="#dfdfdf"/><path d="m121.105905 99.6114645c1.866.033 2.987-.9125 3.016-2.5309l.12-6.8861-1.066-.0186-.019 1.0662-.121-.0021c-.285-.7478-1.033-1.1989-2.029-1.2163-1.612-.0281-2.685 1.0959-2.716 2.8666l-.022 1.2376c-.031 1.7644.996 2.9315 2.589 2.9593 1.003.0175 1.772-.4072 2.09-1.1254l.114.002-.019 1.0726c-.019 1.1043-.696 1.702-1.902 1.6809-.92-.016-1.606-.4026-1.735-.9762l-1.066-.0186c.119 1.1448 1.173 1.862 2.766 1.889zm-1.749-5.6169.016-.9457c.022-1.263.773-2.0689 1.915-2.0489 1.136.0198 1.852.8449 1.83 2.1143l-.017.9456c-.022 1.2694-.766 2.0753-1.902 2.0555-1.142-.0199-1.864-.8578-1.842-2.1208zm11.923 1.4334c-.201.5996-.848.9565-1.718.9413-1.174-.0205-1.909-.8459-1.887-2.1089l.005-.2793 4.69.0819.012-.6727c.035-1.9929-.998-3.1981-2.788-3.2294-1.751-.0305-2.934 1.1424-2.965 2.9575l-.018 1.0345c-.035 1.9611 1.044 3.1164 2.935 3.1494 1.447.0252 2.552-.7237 2.781-1.8561zm-1.708-4.3406c1.11.0194 1.769.8245 1.746 2.1383l-3.623-.0633c.023-1.3201.728-2.095 1.877-2.075zm6.831-2.5281-.033 1.8659-1.834-.032-.016.9203 1.834.032-.068 3.8969c-.025 1.4343.757 2.0955 2.464 2.1253.33.0058 1.169-.0113 1.34-.0401l.016-.9139c-.184.0158-.876.0228-1.263.016-.971-.0169-1.491-.4323-1.478-1.1812l.068-3.8842 2.78.0485.016-.9202-2.793-.0488.033-1.8659z" fill="#ce7eff"/><path d="m154.158905 92.5767645.073-4.1317-1.156-.0201-.072 4.1317zm5.648 5.9965 4.658-10.8193-1.06-.0185-4.652 10.8194zm12.695-7.5364-1.079-.0189-.071 4.0556c-.02 1.1741-.796 1.9541-1.932 1.9343-1.072-.0187-1.57-.6115-1.548-1.8554l.073-4.1952-1.079-.0188-.078 4.4681c-.029 1.6501.768 2.5592 2.266 2.5853 1.047.0183 1.843-.4503 2.226-1.3007l.089.0015-.022 1.2123 1.035.018zm2.678 1.9068c-.017.9774.587 1.6165 1.826 1.9238l1.018.2527c.872.212 1.204.5098 1.194 1.0556-.011.6601-.615 1.0749-1.555 1.0585-.888-.0155-1.491-.3942-1.639-1.0317l-1.098-.0191c.1 1.1826 1.122 1.9305 2.683 1.9577 1.631.0285 2.706-.7781 2.728-2.0474.017-.9964-.582-1.591-1.916-1.919l-.967-.2391c-.86-.2054-1.21-.5099-1.201-1.0367.011-.6283.583-1.0247 1.459-1.0094.806.0141 1.377.3923 1.494.9974l1.041.0182c-.107-1.151-1.066-1.8851-2.5-1.9101-1.517-.0265-2.546.7555-2.567 1.9486zm12.344 3.466c-.201.5996-.848.9565-1.717.9414-1.175-.0205-1.909-.846-1.887-2.109l.005-.2792 4.69.0818.012-.6727c.034-1.9929-.999-3.1981-2.788-3.2293-1.752-.0306-2.934 1.1423-2.966 2.9575l-.018 1.0345c-.034 1.9611 1.044 3.1163 2.935 3.1493 1.447.0253 2.552-.7236 2.782-1.856zm-1.708-4.3405c1.111.0194 1.77.8245 1.747 2.1382l-3.624-.0632c.023-1.3202.728-2.0951 1.877-2.075zm7.634 3.1361c.03-1.7517.95-2.7895 2.473-2.7629.374.0065.817.0905 1.133.2102l.021-1.2122c-.227-.0992-.6-.1628-.994-.1697-1.326-.0231-2.195.622-2.471 1.8932l-.139-.0024.03-1.7581-2.57-.0448-.015.8631 1.529.0267-.09 5.1599-1.39-.0243-.015.8632 4.576.0798.015-.8631-2.132-.0372zm5.834-1.8408c-.017.9774.588 1.6165 1.827 1.9238l1.018.2526c.872.2121 1.203.5099 1.194 1.0557-.012.6601-.616 1.0749-1.555 1.0585-.889-.0155-1.491-.3943-1.639-1.0317l-1.098-.0192c.1 1.1826 1.122 1.9305 2.683 1.9578 1.631.0285 2.705-.7781 2.728-2.0475.017-.9964-.582-1.5909-1.916-1.9189l-.967-.2391c-.86-.2055-1.21-.51-1.201-1.0368.011-.6283.583-1.0246 1.459-1.0093.806.0141 1.377.3922 1.493.9974l1.041.0182c-.107-1.151-1.065-1.8851-2.499-1.9102-1.517-.0264-2.547.7555-2.568 1.9487zm8.732 6.05 4.658-10.819-1.06-.0185-4.651 10.8195zm12.217.214.016-.87-.692-.012c-.952-.0167-1.132-.242-1.113-1.3463l.03-1.6946c.015-.8885-.641-1.4904-1.929-1.5383l.002-.1015c1.289-.0093 1.965-.5879 1.981-1.4764l.029-1.6946c.02-1.1043.208-1.3232 1.16-1.3066l.691.0121.016-.8695-.863-.0151c-1.543-.0269-2.04.4532-2.067 2.0209l-.025 1.4216c-.017.9838-.598 1.5387-2.081 1.3604l-.02 1.1488c1.488-.1264 2.049.4547 2.032 1.4321l-.025 1.4217c-.027 1.5673.453 2.0653 1.995 2.0913zm8.513-7.6099-1.078-.0188-.071 4.0555c-.021 1.1741-.796 1.9542-1.932 1.9344-1.073-.0188-1.57-.6115-1.549-1.8555l.074-4.1951-1.079-.0189-.078 4.4681c-.029 1.6501.768 2.5592 2.265 2.5854 1.048.0182 1.843-.4504 2.226-1.3008l.089.0016-.021 1.2122 1.034.0181zm2.678 1.9069c-.017.9774.588 1.6165 1.827 1.9238l1.017.2526c.873.2121 1.204.5099 1.194 1.0557-.011.6601-.615 1.0749-1.554 1.0585-.889-.0155-1.492-.3943-1.639-1.0317l-1.098-.0192c.1 1.1826 1.121 1.9303 2.683 1.9573 1.631.029 2.705-.7776 2.727-2.047.018-.9964-.581-1.5909-1.915-1.9189l-.967-.2391c-.86-.2055-1.21-.51-1.201-1.0368.011-.6283.583-1.0246 1.458-1.0093.807.0141 1.378.3922 1.494.9974l1.041.0182c-.107-1.151-1.065-1.8851-2.5-1.9102-1.517-.0264-2.546.7555-2.567 1.9487zm12.345 3.466c-.201.5996-.849.9565-1.718.9413-1.174-.0205-1.909-.8459-1.887-2.1089l.005-.2793 4.69.0819.012-.6728c.035-1.9928-.998-3.198-2.788-3.2293-1.752-.0305-2.934 1.1424-2.966 2.9575l-.018 1.0345c-.034 1.9611 1.044 3.1161 2.936 3.1491 1.447.026 2.552-.7234 2.781-1.8558zm-1.708-4.3406c1.11.0194 1.769.8245 1.746 2.1383l-3.624-.0633c.023-1.3201.729-2.095 1.878-2.075zm7.633 3.1362c.031-1.7517.95-2.7895 2.473-2.7629.375.0065.818.0904 1.133.2102l.021-1.2122c-.227-.0992-.6-.1629-.993-.1697-1.327-.0232-2.195.6219-2.471 1.8932l-.14-.0025.031-1.758-2.571-.0449-.015.8632 1.53.0267-.09 5.1598-1.39-.0242-.015.8627 4.576.08.015-.8629-2.133-.0372zm5.764 4.0553995.863.015c1.542.027 2.039-.4529995 2.067-2.0203995l.024-1.4217c.017-.9774.599-1.5386 2.081-1.3604l.02-1.1487c-1.488.1264-2.049-.4485-2.032-1.4322l.025-1.4217c.027-1.5676-.453-2.0648-1.995-2.0917l-.863-.0151-.015.8695.691.0121c.952.0166 1.133.2419 1.113 1.3463l-.029 1.6945c-.016.8886.64 1.4904 1.928 1.5447l-.002.1015c-1.288.0029-1.965.5815-1.981 1.4701l-.029 1.6945c-.02 1.1047-.207 1.3237-1.159 1.3067l-.692-.012zm11.19-5.7021995.072-4.1317-1.155-.0201-.072 4.1317zm-106.024 88.1631995.072-4.132-1.155-.02-.072 4.132zm5.647 5.996 4.658-10.819-1.06-.018-4.652 10.819zm12.695-7.536-1.079-.019-.07 4.056c-.021 1.174-.796 1.954-1.932 1.934-1.073-.019-1.571-.612-1.549-1.855l.073-4.196-1.079-.018-.078 4.468c-.028 1.65.768 2.559 2.266 2.585 1.047.018 1.843-.45 2.226-1.301l.089.002-.021 1.212 1.034.018zm2.678 1.907c-.017.977.587 1.616 1.826 1.924l1.018.252c.873.212 1.204.51 1.194 1.056-.011.66-.615 1.075-1.555 1.058-.888-.015-1.491-.394-1.639-1.031l-1.097-.019c.099 1.182 1.121 1.93 2.683 1.957 1.631.029 2.705-.778 2.727-2.047.017-.997-.582-1.591-1.915-1.919l-.968-.239c-.859-.206-1.21-.51-1.2-1.037.011-.628.582-1.025 1.458-1.009.806.014 1.377.392 1.494.997l1.041.018c-.107-1.151-1.066-1.885-2.5-1.91-1.517-.026-2.546.756-2.567 1.949zm12.345 3.466c-.201.599-.849.956-1.718.941-1.174-.02-1.909-.846-1.887-2.109l.005-.279 4.69.082.012-.673c.035-1.993-.998-3.198-2.788-3.229-1.752-.031-2.934 1.142-2.966 2.957l-.018 1.035c-.034 1.961 1.044 3.116 2.935 3.149 1.447.025 2.553-.724 2.782-1.856zm-1.709-4.341c1.111.02 1.77.825 1.747 2.138l-3.624-.063c.023-1.32.729-2.095 1.877-2.075zm7.634 3.136c.03-1.751.95-2.789 2.473-2.763.375.007.818.091 1.133.211l.021-1.213c-.227-.099-.6-.162-.994-.169-1.326-.023-2.194.622-2.471 1.893l-.139-.002.03-1.759-2.57-.044-.015.863 1.53.026-.091 5.16-1.389-.024-.015.863 4.575.08.016-.863-2.133-.037zm5.835-1.84c-.017.977.587 1.616 1.826 1.923l1.018.253c.872.212 1.204.51 1.194 1.056-.011.66-.615 1.075-1.555 1.058-.888-.015-1.491-.394-1.639-1.032l-1.098-.019c.1 1.183 1.122 1.931 2.683 1.958 1.631.029 2.706-.778 2.728-2.047.017-.997-.582-1.591-1.916-1.919l-.967-.239c-.86-.206-1.21-.51-1.201-1.037.011-.629.583-1.025 1.459-1.01.806.014 1.377.393 1.494.998l1.04.018c-.106-1.151-1.065-1.885-2.499-1.91-1.517-.027-2.547.755-2.567 1.949zm11.119.194.072-4.132-1.155-.02-.072 4.131z" fill="#9775fa"/><path d="m289.071905 99.9594645 1.079.019.104-5.9467 3.027.0529.016-.9203-3.04-.0531.013-.7108c.012-.6918.526-1.0383 1.484-1.0216.387.0068 1.275.0477 1.573.0846l.015-.8822c-.228-.0357-1.185-.0842-1.585-.0912-1.695-.0295-2.531.578-2.554 1.9108l-.012.6918-1.847-.0322-.016.9203 1.847.0322zm11.989-6.6786-1.079-.0189-.071 4.0556c-.021 1.1741-.796 1.9539-1.932 1.9339-1.073-.018-1.57-.6111-1.549-1.855l.074-4.1952-1.079-.0188-.078 4.4681c-.029 1.6499.768 2.5588995 2.266 2.5848995 1.047.019 1.842-.4499995 2.225-1.3002995l.089.0015-.021 1.2117995 1.034.019zm2.278 6.9275995 1.079.019.071-4.0552995c.021-1.1741.796-1.9542 1.932-1.9344 1.073.0188 1.57.6115 1.549 1.8555l-.074 4.1951995 1.079.019.078-4.4682995c.029-1.6501-.768-2.5592-2.265-2.5854-1.048-.0182-1.843.4504-2.226 1.3008l-.089-.0016.021-1.2122-1.034-.0181zm13.805-4.5010995c-.153-1.4184-1.179-2.2997-2.702-2.3263-1.872-.0327-2.984 1.097-3.019 3.0708l-.015.9013c-.035 1.9733 1.037 3.1412995 2.909 3.1742995 1.523.027 2.585-.8119995 2.781-2.2115995l-1.066-.0186c-.147.7842-.829 1.2742-1.717 1.2592-1.2-.021-1.852-.8453-1.826-2.3241l.011-.622c.026-1.4788.706-2.2859 1.906-2.2649.888.0155 1.552.535 1.672 1.3433zm4.062-3.9224-.033 1.866-1.834-.0321-.016.9203 1.834.032-.068 3.8969c-.025 1.4344.757 2.0953995 2.464 2.1253995.33.006 1.168-.011 1.34-.04l.016-.9139995c-.184.016-.876.023-1.263.016-.971-.017-1.491-.432-1.478-1.1813l.068-3.8841 2.78.0485.016-.9203-2.793-.0487.033-1.8659zm9.326.3216c.508.0088.902-.3652.911-.873.009-.5013-.372-.8889-.88-.8978-.507-.0088-.901.3652-.91.8666-.009.5077.372.8953.879.9042zm2.738 8.6248995.016-.8949995-2.278-.04.104-5.9911-3.408-.0595-.016.8949 2.342.0409-.089 5.0968-2.361-.042-.015.8949995zm5.025.215c1.821.031 3.004-1.1349995 3.036-2.9947995l.018-1.0409c.033-1.8596-1.108-3.0667-2.93-3.0985-1.821-.0318-3.003 1.1348-3.036 2.9944l-.018 1.0408c-.032 1.86 1.108 3.0669995 2.93 3.0989995zm.108-6.1821995c1.18.0206 1.902.8713 1.878 2.2231l-.015.8441c-.023 1.358-.774 2.1769995-1.954 2.156-1.181-.02-1.903-.865-1.879-2.2229l.015-.8441c.023-1.3519.774-2.1768 1.955-2.1562zm5.111 6.1461995 1.079.018.071-4.0550995c.02-1.1741.796-1.9541 1.932-1.9343 1.072.0187 1.57.6115 1.548 1.8554l-.073 4.1949995 1.079.019.078-4.4680995c.029-1.6501-.768-2.5592-2.266-2.5853-1.047-.0183-1.842.4503-2.226 1.3007l-.088-.0015.021-1.2123-1.035-.018zm-246.7974001 10.609c.0306-1.752.9502-2.789 2.4734-2.763.3744.007.8170001.091 1.1330001.21l.021-1.212c-.227-.099-.6000001-.163-.9939001-.17-1.3265-.023-2.1948.622-2.4709 1.894l-.1396-.003.0306-1.758-2.5704-.045-.015.863 1.5295.027-.09 5.16-1.39-.024-.015.863 4.5759.08.0151-.863-2.1325-.038zm10.1444001 1.485c-.201.6-.848.957-1.718.941-1.174-.02-1.909-.846-1.887-2.109l.005-.279 4.691.082.011-.673c.035-1.993-.998-3.198-2.788-3.229-1.751-.031-2.933 1.142-2.965 2.957l-.018 1.035c-.034 1.961 1.044 3.116 2.935 3.149 1.447.026 2.552-.723 2.781-1.856zm-1.708-4.341c1.111.02 1.77.825 1.747 2.139l-3.624-.064c.023-1.32.728-2.095 1.877-2.075zm6.831-2.528-.033 1.866-1.834-.032-.016.92 1.834.032-.068 3.897c-.025 1.435.757 2.096 2.464 2.126.33.005 1.169-.012 1.341-.04l.016-.914c-.185.016-.877.023-1.264.016-.971-.017-1.491-.433-1.478-1.181l.068-3.885 2.78.049.016-.92-2.793-.049.033-1.866zm11.995 2.057-1.079-.019-.071 4.056c-.021 1.174-.796 1.954-1.932 1.934-1.073-.019-1.57-.611-1.549-1.855l.074-4.195-1.079-.019-.078 4.468c-.029 1.65.768 2.559 2.265 2.585 1.048.018 1.843-.45 2.226-1.301l.089.002-.021 1.212 1.034.018zm4.877 3.888c.031-1.752.95-2.789 2.474-2.763.374.007.817.091 1.132.21l.022-1.212c-.227-.099-.601-.163-.994-.17-1.327-.023-2.195.622-2.471 1.894l-.14-.003.031-1.758-2.571-.045-.015.863 1.53.027-.09 5.16-1.39-.024-.015.863 4.576.08.015-.863-2.133-.038zm5.436 3.18 1.079.019.071-4.055c.02-1.174.796-1.954 1.932-1.935 1.073.019 1.57.612 1.548 1.856l-.073 4.195 1.079.019.078-4.468c.029-1.65-.768-2.559-2.266-2.586-1.047-.018-1.842.451-2.225 1.301l-.089-.001.021-1.213-1.035-.018zm105 73.844 1.079.019.104-5.947 3.027.053.016-.92-3.04-.053.012-.711c.013-.692.526-1.039 1.485-1.022.387.007 1.275.048 1.573.085l.015-.882c-.228-.036-1.185-.085-1.585-.092-1.695-.029-2.531.578-2.554 1.911l-.012.692-1.847-.032-.016.92 1.847.032zm11.988-6.679-1.078-.019-.071 4.056c-.021 1.174-.796 1.954-1.932 1.934-1.073-.019-1.57-.611-1.549-1.855l.074-4.195-1.079-.019-.078 4.468c-.029 1.65.768 2.559 2.265 2.585 1.048.018 1.843-.45 2.226-1.301l.089.002-.021 1.212 1.034.018zm2.279 6.928 1.079.019.071-4.056c.021-1.174.796-1.954 1.932-1.934 1.073.019 1.57.612 1.548 1.856l-.073 4.195 1.079.019.078-4.469c.029-1.65-.768-2.559-2.266-2.585-1.047-.018-1.842.45-2.225 1.301l-.089-.002.021-1.212-1.034-.018zm13.805-4.501c-.153-1.419-1.179-2.3-2.702-2.327-1.873-.032-2.984 1.097-3.019 3.071l-.016.901c-.034 1.974 1.038 3.142 2.91 3.175 1.523.026 2.585-.812 2.781-2.212l-1.066-.018c-.147.784-.829 1.274-1.717 1.258-1.2-.021-1.852-.845-1.826-2.323l.011-.622c.026-1.479.706-2.286 1.906-2.265.888.015 1.552.535 1.671 1.343zm4.061-3.923-.032 1.866-1.834-.032-.016.921 1.834.032-.068 3.896c-.025 1.435.757 2.096 2.464 2.126.33.006 1.168-.012 1.34-.04l.016-.914c-.184.016-.876.023-1.263.016-.972-.017-1.491-.433-1.478-1.181l.068-3.885 2.78.049.016-.92-2.793-.049.033-1.866zm9.327.322c.508.009.902-.365.911-.873.008-.501-.372-.889-.88-.898s-.901.365-.91.867c-.009.507.371.895.879.904zm2.738 8.625.016-.895-2.279-.04.105-5.991-3.408-.06-.016.895 2.342.041-.089 5.096-2.361-.041-.015.895zm5.025.214c1.821.032 3.003-1.134 3.036-2.994l.018-1.041c.032-1.859-1.108-3.067-2.93-3.098-1.821-.032-3.003 1.134-3.036 2.994l-.018 1.041c-.033 1.859 1.108 3.067 2.93 3.098zm.108-6.181c1.18.02 1.902.871 1.878 2.223l-.015.844c-.023 1.358-.774 2.177-1.955 2.156-1.18-.021-1.902-.865-1.878-2.223l.015-.844c.023-1.352.774-2.177 1.955-2.156zm5.111 6.145 1.079.019.071-4.055c.02-1.174.796-1.954 1.932-1.935 1.072.019 1.57.612 1.548 1.856l-.073 4.195 1.079.019.078-4.468c.029-1.65-.768-2.559-2.266-2.586-1.047-.018-1.843.451-2.226 1.301l-.089-.001.022-1.213-1.035-.018zm31.197 54.553 1.079.019.071-4.055c.02-1.175.796-1.955 1.932-1.935 1.072.019 1.57.612 1.548 1.856l-.073 4.195 1.079.019.078-4.468c.029-1.651-.768-2.56-2.266-2.586-1.047-.018-1.842.451-2.226 1.301l-.088-.002.021-1.212-1.035-.018zm12.744-1.555c-.201.6-.849.957-1.718.941-1.174-.02-1.909-.846-1.887-2.109l.005-.279 4.69.082.012-.673c.034-1.993-.998-3.198-2.788-3.229-1.752-.031-2.934 1.142-2.966 2.957l-.018 1.035c-.034 1.961 1.044 3.116 2.935 3.149 1.447.026 2.552-.723 2.782-1.856zm-1.709-4.34c1.111.019 1.77.824 1.747 2.138l-3.624-.064c.023-1.32.729-2.095 1.877-2.074zm11.692-.596-1.053-.019-1.03 5.506-.114-.002-1.014-5.535-1.016-.018-1.207 5.496-.114-.002-.837-5.538-1.053-.018 1.358 6.912 1.035.018 1.261-5.349.077.001 1.074 5.39 1.034.018zm-253.7687001 35.378c.0306-1.751.9502-2.789 2.4734-2.763.3744.007.8174.091 1.1327.211l.0212-1.212c-.2268-.1-.6003-.163-.9938-.17-1.3264-.023-2.1948.622-2.4709 1.893l-.1396-.002.0307-1.758-2.5705-.045-.015.863 1.5295.027-.09 5.159-1.39-.024-.015.863 4.5759.08.0151-.863-2.1325-.037zm10.1447001 1.485c-.201.6-.849.957-1.718.942-1.174-.021-1.909-.846-1.887-2.109l.005-.28 4.69.082.012-.672c.035-1.993-.998-3.198-2.788-3.23-1.751-.03-2.9338001 1.143-2.9655001 2.958l-.018 1.034c-.0342 1.961 1.0435001 3.117 2.9355001 3.15 1.447.025 2.552-.724 2.781-1.856zm-1.708-4.34c1.11.019 1.769.824 1.746 2.138l-3.624-.063c.023-1.32.729-2.095 1.878-2.075zm6.83-2.528-.032 1.866-1.834-.032-.016.92 1.834.032-.068 3.897c-.025 1.434.757 2.095 2.464 2.125.33.006 1.168-.011 1.34-.04l.016-.914c-.184.016-.876.023-1.263.016-.971-.017-1.491-.432-1.478-1.181l.068-3.884 2.78.048.016-.92-2.793-.049.033-1.866zm11.995 2.056-1.079-.018-.071 4.055c-.02 1.174-.795 1.954-1.932 1.935-1.072-.019-1.57-.612-1.548-1.856l.073-4.195-1.079-.019-.078 4.468c-.028 1.65.768 2.559 2.266 2.585 1.047.019 1.843-.45 2.226-1.3l.089.001-.021 1.213 1.034.018zm4.878 3.888c.031-1.751.95-2.789 2.473-2.763.375.007.818.091 1.133.211l.021-1.212c-.227-.1-.6-.163-.994-.17-1.326-.023-2.194.622-2.47 1.893l-.14-.002.031-1.758-2.571-.045-.015.863 1.53.027-.09 5.159-1.39-.024-.015.863 4.576.08.015-.863-2.133-.037zm5.436 3.181 1.079.019.071-4.056c.02-1.174.796-1.954 1.932-1.934 1.072.018 1.57.611 1.548 1.855l-.073 4.195 1.079.019.078-4.468c.029-1.65-.768-2.559-2.266-2.585-1.047-.019-1.843.45-2.226 1.3l-.088-.001.021-1.212-1.035-.018z" fill="#ff8787"/><path d="m407.504905 99.6084645c.069 1.5059995 1.144 2.5019995 2.824 2.6579995l-.013.705.756.013.012-.711c1.697-.104 2.794-1.1 2.82-2.6109995.024-1.3642-.706-2.1324-2.519-2.6148l-.209-.0608.058-3.2939c.899.1426 1.492.718 1.585 1.5703l1.003.0176c-.052-1.3976-1.057-2.3675-2.572-2.5336l.013-.7108-.756-.0132-.012.7108c-1.614.0988-2.659 1.0519-2.684 2.4863-.023 1.3201.743 2.127 2.462 2.5824l.133.0341-.061 3.4775995c-1.038-.138-1.738-.773-1.824-1.6879995zm1.347-4.4017c.015-.8695.628-1.4365 1.627-1.527l-.055 3.1035c-1.143-.3437-1.586-.7895-1.572-1.5765zm4.017 4.4887c-.016.9009995-.719 1.5299995-1.768 1.6329995l.057-3.2880995c1.219.3388 1.725.8301 1.711 1.6551zm-262.795 13.4219995c.069 1.506 1.144 2.502 2.823 2.659l-.012.704.755.013.013-.711c1.697-.103 2.793-1.1 2.82-2.61.024-1.365-.706-2.133-2.519-2.616l-.209-.06.058-3.294c.899.142 1.492.718 1.585 1.57l1.002.018c-.051-1.398-1.056-2.368-2.571-2.534l.012-.711-.755-.013-.012.711c-1.614.099-2.66 1.052-2.685 2.486-.023 1.32.744 2.127 2.463 2.583l.133.034-.061 3.478c-1.039-.139-1.739-.774-1.824-1.689zm1.347-4.401c.015-.87.628-1.437 1.626-1.527l-.054 3.103c-1.143-.344-1.586-.789-1.572-1.576zm4.016 4.488c-.015.902-.718 1.53-1.768 1.633l.058-3.288c1.219.339 1.725.83 1.71 1.655zm-63.1778001 88.918c.0689 1.505 1.1435 2.502 2.8232 2.658l-.0123.705.7552.013.0124-.711c1.6969-.104 2.7936-1.1 2.8199-2.611.0239-1.364-.7055-2.133-2.5192-2.615l-.2084-.061.0575-3.294c.899.143 1.4921.718 1.5851 1.571l1.0028.017c-.0518-1.397-1.057-2.367-2.5714-2.533l.0124-.711-.7552-.013-.0125.71c-1.6142.099-2.6593 1.052-2.6844 2.487-.023 1.32.7438 2.127 2.4627 2.582l.1327.034-.0607 3.478c-1.0388-.139-1.7388-.773-1.8243-1.689zm1.3465-4.402c.0152-.869.6282-1.436 1.6265-1.527l-.0541 3.104c-1.1431-.344-1.5861-.79-1.5724-1.577zm4.0165 4.489c-.0157.901-.7187 1.53-1.768 1.632l.0574-3.287c1.2194.338 1.725.83 1.7106 1.655zm66.3228001 37.169c.069 1.506 1.144 2.503 2.823 2.659l-.012.704.755.014.013-.711c1.697-.104 2.793-1.101 2.82-2.611.023-1.365-.706-2.133-2.52-2.615l-.208-.061.057-3.294c.899.143 1.492.718 1.586 1.57l1.002.018c-.051-1.398-1.057-2.368-2.571-2.534l.012-.71-.755-.014-.012.711c-1.615.099-2.66 1.052-2.685 2.486-.023 1.321.744 2.128 2.463 2.583l.133.034-.061 3.478c-1.039-.139-1.739-.773-1.824-1.689zm1.347-4.401c.015-.87.628-1.437 1.626-1.527l-.054 3.103c-1.143-.343-1.586-.789-1.572-1.576zm4.016 4.489c-.016.901-.719 1.53-1.768 1.632l.058-3.287c1.219.338 1.725.83 1.71 1.655zm55.878 1.623c-.201.599-.849.956-1.718.941-1.174-.021-1.909-.846-1.887-2.109l.005-.279 4.69.082.012-.673c.035-1.993-.998-3.198-2.788-3.23-1.752-.03-2.934 1.143-2.966 2.958l-.018 1.034c-.034 1.962 1.044 3.117 2.936 3.15 1.447.025 2.552-.724 2.781-1.856zm-1.708-4.341c1.11.019 1.769.824 1.746 2.138l-3.624-.063c.023-1.32.729-2.095 1.878-2.075zm11.26 1.212c.022-1.275-.468-1.951-1.426-1.967-.692-.012-1.251.397-1.44 1.054l-.115-.002c-.134-.682-.584-1.09-1.231-1.101s-1.15.386-1.333 1.075l-.114-.002.017-.971-.965-.017-.12 6.886.971.017.081-4.645c.015-.857.405-1.377 1.014-1.367.584.011.881.454.867 1.285l-.084 4.76.965.017.081-4.646c.015-.857.392-1.377.995-1.366.578.01.875.453.86 1.291l-.083 4.753.971.017zm3.927 5.262c1.003.018 1.759-.382 2.102-1.112l.107.002-.018 1.034 1.029.018.082-4.716c.025-1.434-.887-2.275-2.506-2.303-1.409-.025-2.488.712-2.634 1.814l1.06.018c.188-.587.752-.914 1.545-.9.959.017 1.477.502 1.462 1.365l-.011.622-1.893.063c-1.569.055-2.457.763-2.479 1.981-.021 1.251.84 2.091 2.154 2.114zm.327-.94c-.869-.015-1.401-.469-1.388-1.193.012-.717.527-1.12 1.493-1.148l1.772-.052-.014.813c-.016.92-.822 1.598-1.863 1.58zm8.678-7.6c.508.008.902-.366.911-.873.008-.502-.372-.889-.88-.898s-.901.365-.91.866c-.009.508.371.896.879.905zm2.738 8.624.016-.894-2.279-.04.105-5.992-3.408-.059-.016.895 2.342.041-.089 5.096-2.361-.041-.015.895zm8.035.141.016-.895-2.272-.04.151-8.695-3.414-.059-.016.894 2.336.041-.136 7.8-2.355-.041-.016.895z" fill="#74c0fc"/><path d="m120.337905 180.025464c-.984-.017-1.708.377-2.083 1.132l-.115-.002.019-1.053-1.067-.019-.16 9.209 1.098.019.059-3.389.12.002c.286.761 1.008 1.199 2.004 1.216 1.593.028 2.654-1.103 2.685-2.867l.022-1.282c.031-1.771-.989-2.938-2.582-2.966zm-.329.985c1.136.02 1.846.845 1.824 2.114l-.018.99c-.022 1.27-.76 2.076-1.896 2.056s-1.845-.845-1.823-2.121l.017-.99c.023-1.269.76-2.069 1.896-2.049zm7.807 6.275c1.822.032 3.004-1.134 3.037-2.994l.018-1.041c.032-1.859-1.108-3.067-2.93-3.098-1.821-.032-3.004 1.134-3.036 2.994l-.018 1.041c-.033 1.859 1.108 3.067 2.929 3.098zm.108-6.181c1.181.02 1.902.871 1.879 2.223l-.015.844c-.024 1.358-.774 2.177-1.955 2.156-1.18-.021-1.902-.865-1.878-2.223l.014-.844c.024-1.352.775-2.177 1.955-2.156zm5.51 1.124c-.017.978.588 1.617 1.827 1.924l1.018.253c.872.212 1.203.51 1.194 1.055-.012.66-.616 1.075-1.555 1.059-.889-.016-1.491-.394-1.639-1.032l-1.098-.019c.1 1.183 1.122 1.931 2.683 1.958 1.631.028 2.705-.778 2.728-2.048.017-.996-.582-1.591-1.916-1.919l-.967-.239c-.86-.205-1.21-.51-1.201-1.036.011-.629.583-1.025 1.459-1.01.806.014 1.377.392 1.493.998l1.041.018c-.107-1.151-1.065-1.885-2.499-1.91-1.517-.027-2.547.755-2.568 1.948zm9.433-3.543-.033 1.866-1.834-.032-.016.921 1.834.032-.068 3.896c-.025 1.435.757 2.096 2.464 2.126.33.006 1.169-.012 1.341-.04l.016-.914c-.185.016-.877.023-1.264.016-.971-.017-1.491-.433-1.478-1.181l.068-3.885 2.78.049.016-.92-2.792-.049.032-1.866zm67.938 23.182c-.153-1.418-1.179-2.3-2.702-2.326-1.872-.033-2.984 1.097-3.018 3.071l-.016.901c-.034 1.974 1.037 3.142 2.909 3.174 1.524.027 2.586-.812 2.782-2.211l-1.067-.019c-.147.785-.828 1.274-1.717 1.259-1.199-.021-1.851-.845-1.826-2.324l.011-.622c.026-1.479.707-2.286 1.906-2.265.889.016 1.553.535 1.672 1.344zm4.864 1.742c.031-1.752.951-2.789 2.474-2.763.374.007.817.091 1.133.21l.021-1.212c-.227-.099-.6-.163-.994-.169-1.326-.024-2.195.621-2.471 1.893l-.14-.003.031-1.758-2.57-.045-.015.864 1.529.026-.09 5.16-1.39-.024-.015.863 4.576.08.015-.863-2.132-.038zm10.145 1.485c-.201.6-.848.957-1.718.941-1.174-.02-1.909-.846-1.887-2.109l.005-.279 4.69.082.012-.673c.035-1.993-.998-3.198-2.788-3.229-1.751-.031-2.934 1.142-2.965 2.957l-.018 1.035c-.035 1.961 1.044 3.116 2.935 3.149 1.447.026 2.552-.723 2.781-1.856zm-1.708-4.341c1.111.02 1.769.825 1.747 2.139l-3.624-.064c.023-1.32.728-2.095 1.877-2.075zm7.152 6.334c1.003.018 1.759-.382 2.102-1.112l.108.002-.018 1.034 1.028.018.082-4.715c.025-1.435-.887-2.276-2.505-2.304-1.409-.025-2.489.712-2.635 1.814l1.06.018c.188-.587.752-.913 1.546-.899.958.016 1.476.501 1.461 1.365l-.01.622-1.893.062c-1.569.055-2.458.763-2.479 1.982-.022 1.25.839 2.09 2.153 2.113zm.328-.94c-.87-.015-1.402-.469-1.389-1.192.013-.718.528-1.121 1.493-1.149l1.772-.051-.014.812c-.016.92-.822 1.598-1.862 1.58zm7.386-7.781-.033 1.866-1.834-.032-.016.92 1.834.032-.068 3.897c-.025 1.434.757 2.095 2.464 2.125.33.006 1.169-.011 1.34-.04l.016-.914c-.184.016-.876.023-1.263.016-.971-.017-1.491-.432-1.478-1.181l.068-3.884 2.78.048.016-.92-2.793-.049.033-1.866zm10.947 7.149c-.201.599-.849.956-1.718.941-1.174-.02-1.909-.846-1.887-2.109l.005-.279 4.69.082.012-.673c.035-1.993-.998-3.198-2.788-3.229-1.752-.031-2.934 1.142-2.966 2.957l-.018 1.035c-.034 1.961 1.044 3.116 2.936 3.149 1.447.025 2.552-.724 2.781-1.856zm-1.708-4.341c1.11.02 1.769.825 1.746 2.138l-3.624-.063c.023-1.32.729-2.095 1.878-2.075zm93.246.828 2.4 6.93 1.187.021 2.633-6.842-1.149-.021-2.01 5.698-.082-.001-1.823-5.765zm10.325 7.189c1.003.018 1.759-.382 2.102-1.112l.107.002-.018 1.034 1.029.018.082-4.716c.025-1.434-.887-2.275-2.506-2.303-1.409-.025-2.488.712-2.634 1.814l1.06.018c.188-.587.752-.914 1.545-.9.959.017 1.477.502 1.462 1.365l-.011.622-1.893.063c-1.569.055-2.457.763-2.479 1.981-.021 1.251.84 2.091 2.154 2.114zm.327-.94c-.869-.015-1.401-.469-1.388-1.193.012-.717.527-1.12 1.493-1.148l1.772-.052-.014.813c-.016.92-.822 1.598-1.863 1.58zm11.416 1.024.016-.894-2.272-.04.152-8.695-3.415-.06-.016.895 2.336.041-.136 7.8-2.355-.041-.015.895zm5.297-8.484c.508.009.902-.365.91-.873.009-.501-.371-.889-.879-.898s-.902.365-.91.867c-.009.507.371.895.879.904zm2.738 8.625.016-.895-2.279-.04.105-5.991-3.408-.06-.016.895 2.342.041-.089 5.096-2.361-.041-.016.895zm4.593.194c.984.017 1.715-.376 2.083-1.132l.121.002-.019 1.054 1.06.018.168-9.589-1.098-.02-.066 3.77-.114-.002c-.285-.76-1.014-1.198-2.011-1.216-1.593-.027-2.654 1.103-2.684 2.868l-.023 1.282c-.031 1.77.99 2.937 2.583 2.965zm.335-.978c-1.136-.02-1.852-.851-1.83-2.121l.017-.99c.023-1.269.767-2.069 1.903-2.049 1.129.02 1.845.845 1.823 2.114l-.017.99c-.023 1.276-.767 2.076-1.896 2.056zm7.433 1.12c1.003.018 1.759-.382 2.102-1.112l.108.002-.018 1.034 1.028.018.082-4.716c.026-1.434-.887-2.275-2.505-2.303-1.409-.025-2.488.712-2.635 1.814l1.06.018c.188-.587.753-.914 1.546-.9.958.017 1.477.502 1.462 1.365l-.011.622-1.893.063c-1.569.055-2.458.763-2.479 1.981-.022 1.251.84 2.091 2.153 2.114zm.328-.94c-.87-.015-1.401-.469-1.389-1.193.013-.717.528-1.12 1.493-1.148l1.772-.052-.014.813c-.016.92-.821 1.598-1.862 1.58zm7.386-7.782-.033 1.866-1.834-.032-.016.921 1.834.032-.068 3.896c-.025 1.435.757 2.096 2.464 2.126.33.006 1.169-.012 1.341-.04l.016-.914c-.185.016-.877.023-1.264.016-.971-.017-1.491-.433-1.478-1.181l.068-3.885 2.78.049.016-.92-2.792-.049.032-1.866zm10.947 7.15c-.201.599-.848.956-1.718.941-1.174-.021-1.909-.846-1.887-2.109l.005-.279 4.69.082.012-.673c.035-1.993-.998-3.198-2.788-3.23-1.751-.03-2.934 1.143-2.965 2.958l-.018 1.034c-.035 1.962 1.044 3.117 2.935 3.15 1.447.025 2.552-.724 2.781-1.856zm-1.708-4.341c1.111.019 1.769.824 1.747 2.138l-3.624-.063c.023-1.32.728-2.095 1.877-2.075zm7.419 6.332c.984.017 1.714-.376 2.083-1.132l.12.002-.018 1.054 1.06.018.167-9.589-1.098-.02-.065 3.77-.115-.002c-.285-.76-1.014-1.198-2.01-1.216-1.593-.027-2.654 1.103-2.685 2.868l-.022 1.282c-.031 1.77.99 2.937 2.583 2.965zm.334-.978c-1.136-.02-1.851-.851-1.829-2.121l.017-.99c.022-1.269.766-2.069 1.902-2.049 1.13.02 1.846.845 1.824 2.114l-.018.99c-.022 1.276-.766 2.076-1.896 2.056zm-266.703 23.484-.032 1.866-1.834-.032-.016.92 1.834.032-.068 3.897c-.025 1.435.757 2.096 2.464 2.126.33.005 1.168-.012 1.34-.041l.016-.913c-.184.015-.876.022-1.263.016-.971-.017-1.491-.433-1.478-1.182l.068-3.884 2.78.049.016-.921-2.793-.048.033-1.866zm9.055 9.021c1.821.032 3.003-1.135 3.036-2.995l.018-1.04c.033-1.86-1.108-3.067-2.93-3.099-1.821-.032-3.003 1.135-3.036 2.994l-.018 1.041c-.032 1.86 1.108 3.067 2.93 3.099zm.108-6.182c1.18.021 1.902.871 1.878 2.223l-.015.844c-.023 1.359-.774 2.177-1.954 2.156-1.181-.02-1.903-.864-1.879-2.223l.015-.844c.023-1.352.774-2.176 1.955-2.156zm134.068 3.369c-.017.977.588 1.616 1.827 1.924l1.018.252c.872.212 1.203.51 1.194 1.056-.012.66-.616 1.075-1.555 1.058-.889-.015-1.492-.394-1.639-1.031l-1.098-.019c.1 1.182 1.122 1.93 2.683 1.957 1.631.029 2.705-.778 2.727-2.047.018-.997-.581-1.591-1.915-1.919l-.967-.239c-.86-.206-1.21-.51-1.201-1.037.011-.628.583-1.025 1.459-1.009.806.014 1.377.392 1.493.997l1.041.018c-.107-1.151-1.065-1.885-2.5-1.91-1.516-.026-2.546.756-2.567 1.949zm12.345 3.466c-.201.599-.848.956-1.718.941-1.174-.02-1.909-.846-1.887-2.109l.005-.279 4.69.082.012-.673c.035-1.993-.998-3.198-2.788-3.229-1.751-.031-2.934 1.142-2.965 2.957l-.018 1.035c-.035 1.961 1.044 3.116 2.935 3.149 1.447.025 2.552-.724 2.781-1.856zm-1.708-4.341c1.11.02 1.769.825 1.746 2.138l-3.624-.063c.023-1.32.729-2.095 1.878-2.075zm5.034 6.176 1.079.019.071-4.055c.021-1.174.796-1.954 1.932-1.935 1.073.019 1.57.612 1.548 1.856l-.073 4.195 1.079.019.078-4.468c.029-1.65-.768-2.559-2.266-2.586-1.047-.018-1.842.451-2.225 1.301l-.089-.001.021-1.213-1.034-.018zm10.42.297c.983.017 1.714-.377 2.083-1.132l.12.002-.018 1.053 1.06.019.167-9.59-1.098-.019-.066 3.77-.114-.002c-.285-.761-1.014-1.199-2.01-1.216-1.593-.028-2.654 1.103-2.685 2.867l-.022 1.282c-.031 1.771.99 2.938 2.583 2.966zm.334-.979c-1.136-.019-1.852-.851-1.829-2.12l.017-.99c.022-1.27.766-2.069 1.902-2.049 1.13.019 1.846.844 1.823 2.114l-.017.99c-.022 1.275-.766 2.075-1.896 2.055z" fill="#ce7eff"/><path d="m41.1587049 60.0111645.0172-.9838-2.5768-.045.1427-8.1745-1.098-.0192-2.76 1.7231-.0208 1.1932 2.6508-1.6488.1015.0018-.1205 6.9052-2.7037-.0472-.0172.9837zm-6.5777 11.3044-.0007.038 1.079.0189.0006-.0381c.0189-1.0789.7293-1.7712 1.7829-1.7528 1.0662.0186 1.7467.678 1.7295 1.6617-.0126.7236-.3004 1.2074-1.4845 2.4882l-3.1574 3.3922-.0135.7743 5.7945.1011.0178-1.0155-4.1952-.0732.0019-.1079 2.1988-2.3106c1.4876-1.5675 1.9324-2.3216 1.9491-3.2736.0267-1.5295-1.1103-2.5906-2.7921-2.6199-1.6692-.0292-2.8826 1.1051-2.9107 2.7172zm1.4476 20.3643 1.0472.0183c1.2693.0221 2.0635.7153 2.0449 1.7815-.0181 1.0345-.81 1.6683-2.0667 1.6463-1.1424-.0199-1.9437-.6688-2.0282-1.6479l-1.0599-.0185c.055 1.5817 1.2934 2.6445 3.1022 2.6761 1.8279.0319 3.1547-1.0559 3.1818-2.6109.0219-1.2503-.6867-2.1197-1.9025-2.2996l.0018-.1016c.9879-.224 1.5792-1.0009 1.5985-2.1052.0242-1.39-1.1264-2.3941-2.7638-2.4227-1.6946-.0295-2.8288.9347-2.9644 2.5195l1.0726.0187c.106-.9822.802-1.5731 1.8302-1.5552 1.0345.0181 1.7092.6457 1.6929 1.5786-.0167.9584-.7457 1.6186-1.7738 1.6007l-.9964-.0174zm1.8013 22.2815995 1.0218.018.0338-1.936 1.4026.024.0172-.983-1.3963-.025.0455-2.602-1.0155-.018-.0457 2.615-3.0019-.052.0014-.083 3.1731-6.115-1.1424-.02-3.2201 6.261-.0158.907 4.1761.073zm-1.4661 18.161c1.8596.033 3.1445-1.202 3.1769-3.055.0314-1.803-1.127-3.086-2.8216-3.116-.806-.014-1.4647.26-1.9249.798l-.1015-.002.306-2.985 4.1254.072.0176-1.009-5.0075-.087-.5536 5.164 1.0599.019c.373-.641 1.0587-1.004 1.8774-.989 1.1741.02 1.9526.884 1.9307 2.141-.0217 1.244-.8232 2.062-2.0037 2.041-1.0726-.019-1.8798-.693-1.9646-1.653l-1.079-.019c.0678 1.576 1.2552 2.65 2.9625 2.68zm2.9581 14.931c.0292-1.669-1.1551-2.928-2.7862-2.956-.5839-.011-1.2487.251-1.528.614l-.0944-.052c.0462-.101.0204-.076.3065-.465l2.5606-3.39-1.2884-.022c-.0651.094-2.0157 2.726-2.1006 2.865-.8981 1.26-1.2768 2.225-1.2956 3.297-.0318 1.822 1.2465 3.152 3.0489 3.183 1.8152.032 3.1455-1.259 3.1772-3.074zm-3.1534 2.078c-1.1488-.02-2.0089-.937-1.9884-2.111.0206-1.18.9122-2.066 2.0609-2.046 1.1551.02 2.0153.937 1.9947 2.117-.0205 1.174-.9121 2.06-2.0672 2.04zm-2.5496 18.765 1.1932.02 4.2481-8.052.0181-1.034-6.1119-.107-.0175 1.003 4.9695.087-.0015.082zm1.91 18.239c1.904.033 3.2432-1.036 3.2705-2.597.0201-1.155-.7186-2.114-1.8252-2.368l.0018-.102c.9375-.244 1.516-1.014 1.5333-2.011.025-1.428-1.1442-2.458-2.8134-2.487s-2.88.959-2.9049 2.387c-.0174.997.5464 1.794 1.4622 2.064l-.0017.101c-1.1345.254-1.8869 1.167-1.9067 2.303-.0273 1.562 1.2801 2.677 3.1841 2.71zm.0955-5.471c-1.0599-.019-1.7535-.653-1.7371-1.592.0163-.933.7316-1.543 1.7915-1.524 1.0599.018 1.7472.652 1.7309 1.585-.0164.94-.7254 1.549-1.7853 1.531zm-.0785 4.5c-1.244-.022-2.0881-.76-2.0699-1.808.0183-1.047.8877-1.755 2.1317-1.734 1.2439.022 2.0881.76 2.0698 1.808-.0182 1.047-.8877 1.755-2.1316 1.734zm-3.3797 12.49c-.0292 1.676 1.1488 2.928 2.7863 2.956.5775.01 1.2297-.251 1.509-.615l.0943.053c-.0589.1-.1048.182-.3192.464l-2.5542 3.39 1.2821.022c.0714-.094 2.0156-2.726 2.1006-2.864.924-1.292 1.3091-2.256 1.3272-3.297.032-1.828-1.2464-3.152-3.0552-3.184-1.8088-.031-3.1392 1.26-3.1709 3.075zm3.1471-2.078c1.1551.02 2.0153.936 1.9948 2.111-.0206 1.18-.9122 2.066-2.0673 2.046-1.1488-.02-2.0089-.937-1.9883-2.117.0205-1.174.9121-2.06 2.0608-2.04zm-5.0168 26.27.0172-.984-2.5768-.045.1427-8.175-1.098-.019-2.76 1.723-.0208 1.194 2.6508-1.649.1015.002-.1205 6.905-2.7037-.047-.0172.983zm4.5786.289c1.9866.035 3.1206-1.647 3.1744-4.731.0539-3.085-1.0208-4.805-3.0073-4.84-1.9929-.034-3.1205 1.647-3.1744 4.732-.0538 3.084 1.0145 4.804 3.0073 4.839zm-1.8966-4.82c.0434-2.488.7517-3.783 2.0464-3.761.8632.016 1.4496.61 1.728 1.751l-3.7476 3.02c-.0199-.311-.0331-.648-.0268-1.01zm1.9139 3.83c-.8631-.015-1.4432-.609-1.7219-1.738l3.7354-3.045c.0262.318.033.654.0266 1.022-.0433 2.482-.7453 3.784-2.0401 3.761zm-4.9101 18.698.0172-.984-2.5767-.045.1427-8.174-1.098-.019-2.76 1.723-.0208 1.193 2.6507-1.649.1016.002-.1206 6.905-2.7036-.047-.0172.984zm8.035.14.0171-.983-2.5767-.045.1427-8.175-1.098-.019-2.76 1.723-.0208 1.193 2.6507-1.649.1016.002-.1206 6.905-2.7036-.047-.0172.984zm-8.3491 17.857.0172-.983-2.5768-.045.1427-8.175-1.098-.019-2.76 1.723-.0208 1.193 2.6508-1.649.1015.002-.1205 6.905-2.7037-.047-.0172.984zm1.7714-6.552-.0007.038 1.0789.019.0007-.039c.0188-1.078.7293-1.771 1.7828-1.752 1.0663.018 1.7468.678 1.7296 1.661-.0126.724-.3004 1.208-1.4846 2.489l-3.1573 3.392-.0135.774 5.7945.101.0177-1.015-4.1951-.073.0018-.108 2.1989-2.311c1.4875-1.568 1.9324-2.322 1.949-3.274.0267-1.529-1.1102-2.59-2.7921-2.62-1.6691-.029-2.8825 1.106-2.9106 2.718zm-2.0855 24.55.0171-.984-2.5767-.045.1427-8.175-1.098-.019-2.76 1.723-.0208 1.193 2.6507-1.648.1016.001-.1205 6.906-2.7037-.048-.0172.984zm3.533-4.186 1.0472.018c1.2694.022 2.0635.716 2.0449 1.782-.018 1.034-.81 1.668-2.0666 1.646-1.1424-.02-1.9437-.669-2.0282-1.648l-1.0599-.018c.0549 1.581 1.2934 2.644 3.1022 2.676 1.8278.032 3.1547-1.056 3.1818-2.611.0218-1.25-.6867-2.12-1.9025-2.3l.0017-.101c.988-.224 1.5793-1.001 1.5985-2.106.0243-1.389-1.1263-2.394-2.7638-2.422-1.6945-.03-2.8287.934-2.9643 2.519l1.0726.019c.106-.982.802-1.573 1.8301-1.555 1.0345.018 1.7092.645 1.693 1.578-.0168.959-.7457 1.619-1.7739 1.601l-.9964-.017zm-3.8472 22.183.0172-.984-2.5768-.045.1427-8.174-1.098-.02-2.7599 1.723-.0209 1.194 2.6508-1.649.1015.002-.1205 6.905-2.7037-.047-.0172.983zm5.6486.098 1.0218.018.0338-1.936 1.4026.025.0172-.984-1.3963-.024.0454-2.602-1.0155-.018-.0456 2.615-3.002-.053.0015-.082 3.1731-6.116-1.1424-.02-3.2201 6.261-.0159.908 4.1762.073z" fill="#423f3e"/></g></g></svg>