<svg fill="none" height="219" viewBox="0 0 454 219" width="454" xmlns="http://www.w3.org/2000/svg" xmlns:xlink="http://www.w3.org/1999/xlink"><linearGradient id="a" gradientUnits="userSpaceOnUse" x1="165.94" x2="165.411" y1="172.607" y2="187.006"><stop offset="0" stop-color="#f88535"/><stop offset="1" stop-color="#fd2221"/></linearGradient><path d="m215 124h100v86h-100zm-214 0h100v86h-100zm344 0h100v86h-100zm-214 0h54v86h-54z" stroke="#ff2d20" stroke-width="2"/><path d="m223 132h100v86h-100zm-214 0h100v86h-100zm344 0h100v86h-100zm-214 0h54v86h-54z" fill="#fff" stroke="#565454" stroke-width="2"/><path d="m229 138h5" stroke="#565454" stroke-width="2"/><path d="m219.625 39.375v7.875m0-34.875-7.875-4.5-7.875 4.5 7.875 4.5zm0 0v18" stroke="#ff2d20" stroke-linecap="round" stroke-linejoin="round" stroke-width="1.5"/><path d="m203.875 12.375v25.875l15.75 9 15.75-9v-16.875" stroke="#ff2d20" stroke-linecap="round" stroke-linejoin="round" stroke-width="1.5"/><path d="m211.75 16.875v18l7.875 4.5 23.625-13.5v-9" stroke="#ff2d20" stroke-linecap="round" stroke-linejoin="round" stroke-width="1.5"/><path d="m227.5 16.875 7.875-4.5 7.875 4.5-7.875 4.5zm0 0v9m0 0 7.875 4.5m-7.875-4.5-15.75 9" stroke="#ff2d20" stroke-linecap="round" stroke-linejoin="round" stroke-width="1.5"/><path d="m237 138h5m-79 1h6m76-1h5m-235 0h5m339 0h5m-341 0h5m339 0h5m-341 0h5m339 0h5" stroke="#565454" stroke-width="2"/><path d="m394 124v-30m-130 30v-30m-214 30v-30m172 0v-30m-65 60v-30m-108 0h346" stroke="#ff2d20" stroke-width="2"/><path d="m70.1326 170.39c-.3512-.119-.7054-.229-1.0622-.33.0599-.242.1151-.481.1641-.715.8041-3.852.2784-6.955-1.5171-7.976-1.7216-.98-4.537.041-7.3804 2.483-.2802.241-.5543.489-.8218.744-.1791-.169-.3613-.336-.5467-.498-2.98-2.611-5.9671-3.711-7.7607-2.687-1.7199.983-2.2293 3.9-1.5053 7.55.072.361.1533.721.2439 1.078-.4228.119-.8308.245-1.2213.379-3.4939 1.202-5.7251 3.086-5.7251 5.04 0 2.018 2.3953 4.042 6.0344 5.269.295.099.5925.191.8921.275-.0973.385-.1837.773-.2591 1.163-.6901 3.586-.1512 6.434 1.5642 7.411 1.7717 1.008 4.7453-.028 7.6406-2.526.2348-.203.4644-.412.6886-.626.2898.276.5872.544.8921.803 2.8047 2.381 5.5747 3.343 7.2883 2.364 1.77-1.011 2.3454-4.07 1.5985-7.793-.0589-.291-.1248-.581-.1979-.87.2088-.061.4138-.124.6136-.189 3.7831-1.237 6.2446-3.236 6.2446-5.281 0-1.961-2.3033-3.858-5.8674-5.068zm-.8205 9.029c-.1805.058-.3656.115-.5543.171-.4177-1.305-.9812-2.692-1.671-4.126.6582-1.399 1.2001-2.768 1.606-4.064.3376.096.6652.198.981.305 3.0538 1.037 4.9165 2.571 4.9165 3.753 0 1.258-2.0117 2.893-5.2782 3.961zm-1.3553 2.649c.3302 1.646.3773 3.135.1585 4.298-.1964 1.045-.5917 1.742-1.0805 2.021-1.0399.594-3.2639-.178-5.6624-2.214-.2836-.241-.5603-.49-.8298-.747.9299-1.003 1.8592-2.17 2.7662-3.465 1.5953-.14 3.1025-.368 4.4693-.68.0658.261.1254.524.1787.787zm-13.7064 6.217c-1.016.354-1.8253.364-2.3145.086-1.0409-.593-1.4736-2.88-.8834-5.947.0702-.362.1505-.723.2409-1.081 1.3518.295 2.848.507 4.447.635.9132 1.268 1.8693 2.433 2.8329 3.454-.2048.195-.4144.386-.6287.571-1.2804 1.104-2.5634 1.888-3.6942 2.282zm-4.76-8.874c-1.6091-.543-2.938-1.248-3.8489-2.018-.8185-.691-1.2317-1.378-1.2317-1.935 0-1.186 1.7915-2.698 4.7794-3.726.3626-.125.7421-.242 1.1359-.353.413 1.326.9547 2.711 1.6084 4.113-.6622 1.422-1.2116 2.83-1.6286 4.17-.2736-.077-.5451-.161-.8145-.251zm1.5956-10.717c-.6201-3.128-.2083-5.487.8283-6.079 1.1039-.631 3.5451.269 6.1182 2.523.1678.147.3329.298.4952.451-.9588 1.016-1.9062 2.172-2.8112 3.433-1.5521.141-3.0377.369-4.4036.675-.0841-.333-.1598-.667-.2269-1.003zm14.2348 3.468c-.3227-.55-.6572-1.093-1.0036-1.629 1.0529.132 2.0618.306 3.0091.519-.2844.9-.6389 1.84-1.0561 2.804-.305-.571-.6216-1.136-.9494-1.694zm-5.8049-5.579c.6502.695 1.3014 1.471 1.9419 2.313-1.2993-.06-2.6009-.061-3.9003-.001.6412-.834 1.298-1.609 1.9584-2.312zm-5.8422 5.588c-.3238.554-.6344 1.116-.9316 1.684-.4104-.961-.7617-1.905-1.0485-2.817.9415-.208 1.9455-.378 2.9918-.507-.3502.539-.6875 1.086-1.0117 1.64zm1.0417 8.313c-1.0809-.119-2.1-.281-3.0413-.483.2913-.928.6503-1.893 1.0697-2.874.2984.568.6103 1.13.9354 1.684.3344.57.6807 1.128 1.0362 1.673zm4.8394 3.946c-.6683-.711-1.3347-1.498-1.9856-2.344.6319.024 1.2761.037 1.9308.037.6726 0 1.3375-.015 1.992-.044-.6426.862-1.2914 1.65-1.9372 2.351zm6.7286-7.353c.4412.992.8129 1.951 1.1081 2.864-.9567.215-1.9898.389-3.0783.518.3488-.546.6866-1.098 1.0131-1.657.332-.568.6511-1.143.9571-1.725zm-2.1782 1.03c-.4999.857-1.0279 1.697-1.5831 2.52-1.0058.071-2.0138.105-3.0221.105-1.027 0-2.0259-.032-2.9878-.093-.5697-.821-1.1078-1.663-1.613-2.524-.5028-.857-.9724-1.732-1.4079-2.624.4344-.892.9027-1.768 1.4038-2.625h-.0001c.5009-.857 1.0346-1.696 1.6001-2.513.9813-.074 1.9877-.112 3.0048-.112 1.0217 0 2.0295.039 3.0106.113.5597.816 1.09 1.651 1.59 2.505.5028.855.9773 1.726 1.4226 2.612-.4408.895-.9137 1.774-1.4179 2.636zm2.9081-15.533c1.105.628 1.5348 3.164.8405 6.49-.0444.212-.0941.428-.1483.647-1.3692-.312-2.8559-.544-4.4124-.688-.9068-1.274-1.8464-2.432-2.7896-3.435.2472-.235.5003-.464.759-.687 2.4364-2.092 4.7134-2.918 5.7508-2.327zm-7.5133 9.976c1.6274 0 2.9468 1.302 2.9468 2.908s-1.3194 2.907-2.9468 2.907-2.9468-1.301-2.9468-2.907 1.3194-2.908 2.9468-2.908z" fill="#00d8ff"/><path d="m414.6 161h7.4l-18.5 30.972-18.5-30.972h14.153l4.347 7.182 4.255-7.182z" fill="#41b883"/><path d="m385 161 18.5 30.972 18.5-30.972h-7.4l-11.1 18.583-11.192-18.583z" fill="#41b883"/><path d="m392.307 161 11.193 18.673 11.1-18.673h-6.845l-4.255 7.182-4.348-7.182z" fill="#35495e"/><g clip-rule="evenodd" fill-rule="evenodd"><path d="m286.231 183.803c-.576.869-1.012 1.938-2.18 1.938-1.966 0-2.072-3.029-4.04-3.029-1.967 0-1.86 3.029-3.826 3.029s-2.072-3.029-4.04-3.029c-1.967 0-1.86 3.029-3.826 3.029s-2.072-3.029-4.039-3.029c-1.968 0-1.861 3.029-3.826 3.029-.619 0-1.052-.3-1.419-.71-1.406-2.446-2.216-5.312-2.216-8.378 0-8.972 6.937-16.245 15.494-16.245 8.558 0 15.495 7.273 15.495 16.246 0 2.565-.567 4.992-1.577 7.149z" fill="#fb70a9"/><path d="m266.126 182.199v6.73c0 1.207-.98 2.186-2.189 2.186-.287 0-.571-.056-.837-.166-.265-.11-.507-.271-.71-.474s-.364-.444-.474-.709c-.11-.266-.167-.55-.167-.837v-8.124c.408-.749.874-1.397 1.716-1.397 1.369 0 1.847 1.719 2.661 2.792zm8.265.351v10.642c0 .319-.063.635-.185.93-.122.294-.301.562-.527.788-.225.225-.493.404-.788.526s-.611.185-.93.185c-1.343 0-2.432-1.088-2.432-2.429v-12.045c.458-.882.93-1.739 1.897-1.739 1.532 0 1.949 2.15 2.966 3.142zm7.782-.195v7.725c0 1.208-.98 2.186-2.188 2.186-1.209 0-2.189-.978-2.189-2.186v-9.495c.381-.652.834-1.177 1.593-1.177 1.437 0 1.892 1.894 2.784 2.947z" fill="#4e56a6"/><path d="m266.126 184.262c-.389-.475-.848-.828-1.513-.828-1.578 0-1.868 1.988-2.864 2.883v-8.571c0-.287.057-.571.167-.837.11-.265.271-.506.474-.709s.444-.364.71-.474c.265-.11.55-.166.837-.166 1.209 0 2.189.979 2.189 2.186zm8.265.153c-.413-.551-.897-.981-1.631-.981-1.756 0-1.917 2.46-3.231 3.141v-3.791c0-1.342 1.089-2.43 2.432-2.43.319 0 .635.063.93.185s.563.301.789.526c.225.226.404.494.527.789.122.294.185.61.185.93zm7.782-.425c-.337-.332-.736-.556-1.266-.556-1.701 0-1.906 2.309-3.111 3.071v-7.693c0-.581.231-1.137.641-1.548.411-.41.967-.641 1.548-.641.58 0 1.137.231 1.547.641.41.411.641.967.641 1.548z" fill="#000" fill-opacity=".298"/><path d="m286.231 183.803c-.576.869-1.012 1.938-2.18 1.938-1.966 0-2.072-3.029-4.04-3.029-1.967 0-1.86 3.029-3.826 3.029s-2.072-3.029-4.04-3.029c-1.967 0-1.86 3.029-3.826 3.029s-2.072-3.029-4.039-3.029c-1.968 0-1.861 3.029-3.826 3.029-.619 0-1.052-.3-1.419-.71-1.406-2.446-2.216-5.312-2.216-8.378 0-8.972 6.937-16.245 15.494-16.245 8.558 0 15.495 7.273 15.495 16.246 0 2.565-.567 4.992-1.577 7.149z" fill="#fb70a9"/><path d="m282.878 185.417c4.06-6.036 4.164-12.73.314-20.084 2.854 2.922 4.616 6.931 4.616 11.355 0 2.557-.588 4.973-1.635 7.123-.595.864-1.049 1.93-2.26 1.93-.37.003-.732-.11-1.035-.324z" fill="#e24ca6"/><path d="m271.483 180.707c5.388 0 7.656-3.124 7.656-7.559 0-4.436-3.428-8.518-7.656-8.518-4.229 0-7.657 4.082-7.657 8.518s2.268 7.559 7.657 7.559z" fill="#fff"/><path d="m272.295 170.233c0 1.748-1.286 3.167-2.871 3.167-1.587 0-2.872-1.419-2.872-3.167 0-1.749 1.285-3.168 2.872-3.168 1.585 0 2.871 1.419 2.871 3.168z" fill="#030776"/><path d="m270.38 169.502c0 .807-.642 1.461-1.435 1.461-.794 0-1.436-.654-1.436-1.461s.642-1.461 1.436-1.461c.793 0 1.435.654 1.435 1.461z" fill="#fff"/></g><path d="m168.922 163.007s6.217 3.554 7.844 9.2c1.466 5.1.292 7.534.292 7.534.75.817 1.341 1.766 1.742 2.8.403.664.64 1.416.691 2.191.05.775-.087 1.551-.401 2.262 0 0-.1-2.08-3.2-2.511-2.841-.4-3.874 2.366-9.3 2.232-3.006-.057-5.953-.849-8.583-2.306-2.631-1.458-4.864-3.536-6.507-6.055 2.651 1.446 6.124 3.691 10.449 3.346s5.228-1.674 5.228-1.674c-4.862-3.847-9.165-8.351-12.786-13.383 3.4 2.845 11.822 8.507 11.626 8.363-3.081-3.01-5.899-6.277-8.425-9.766 0 0 12.636 10.389 13.653 10.323.418-.861 2.579-5.318-2.324-12.557z" fill="url(#a)"/></svg>